<svg width="17" height="18" viewBox="0 0 17 18" fill="none" xmlns="http://www.w3.org/2000/svg">
<path d="M0.764153 4.16028H2.46227H16.0472" stroke="#8C8C8C" stroke-width="1.5" stroke-linecap="round" stroke-linejoin="round"/>
<path d="M15.1136 4.16035C15.1136 3.73832 14.7715 3.3962 14.3494 3.3962C13.9274 3.3962 13.5853 3.73832 13.5853 4.16035H14.3494H15.1136ZM3.22676 4.16035C3.22676 3.73832 2.88464 3.3962 2.46261 3.3962C2.04058 3.3962 1.69845 3.73832 1.69845 4.16035H2.46261H3.22676ZM4.24565 4.16037C4.24565 4.5824 4.58777 4.92452 5.0098 4.92452C5.43183 4.92452 5.77395 4.5824 5.77395 4.16037H5.0098H4.24565ZM11.0381 4.16037C11.0381 4.5824 11.3802 4.92452 11.8023 4.92452C12.2243 4.92452 12.5664 4.5824 12.5664 4.16037H11.8023H11.0381ZM14.3494 4.16035H13.5853V15.4925H14.3494H15.1136V4.16035H14.3494ZM14.3494 15.4925H13.5853C13.5853 16.0524 13.1483 16.4717 12.6513 16.4717V17.2359V18C14.03 18 15.1136 16.8583 15.1136 15.4925H14.3494ZM12.6513 17.2359V16.4717H4.16072V17.2359V18H12.6513V17.2359ZM4.16072 17.2359V16.4717C3.66374 16.4717 3.22676 16.0524 3.22676 15.4925H2.46261H1.69845C1.69845 16.8583 2.78202 18 4.16072 18V17.2359ZM2.46261 15.4925H3.22676V4.16035H2.46261H1.69845V15.4925H2.46261ZM5.0098 4.16037H5.77395V2.46225H5.0098H4.24565V4.16037H5.0098ZM5.0098 2.46225H5.77395C5.77395 1.94643 6.1921 1.52828 6.70792 1.52828V0.764132V-2.10124e-05C5.34804 -2.10124e-05 4.24565 1.10237 4.24565 2.46225H5.0098ZM6.70792 0.764132V1.52828H10.1042V0.764132V-2.10124e-05H6.70792V0.764132ZM10.1042 0.764132V1.52828C10.62 1.52828 11.0381 1.94643 11.0381 2.46225H11.8023H12.5664C12.5664 1.10237 11.464 -2.10124e-05 10.1042 -2.10124e-05V0.764132ZM11.8023 2.46225H11.0381V4.16037H11.8023H12.5664V2.46225H11.8023Z" fill="#8C8C8C"/>
<path d="M6.70723 8.40568V12.8208" stroke="#8C8C8C" stroke-width="1.5" stroke-linecap="round" stroke-linejoin="round"/>
<path d="M10.1041 8.40568V12.8208" stroke="#8C8C8C" stroke-width="1.5" stroke-linecap="round" stroke-linejoin="round"/>
</svg>
