<svg width="132" height="96" viewBox="0 0 132 96" fill="none" xmlns="http://www.w3.org/2000/svg">
<mask id="mask0_452_9533" style="mask-type:luminance" maskUnits="userSpaceOnUse" x="0" y="0" width="132" height="96">
<rect width="132" height="96" fill="white"/>
</mask>
<g mask="url(#mask0_452_9533)">
<ellipse cx="65.3527" cy="81.962" rx="29.8397" ry="1.70513" fill="#171A1D"/>
<rect x="35.5129" y="23.9873" width="57.9744" height="57.9744" rx="6.82051" fill="white" stroke="#171A1D" stroke-width="0.852564"/>
<path fill-rule="evenodd" clip-rule="evenodd" d="M42.3274 27.3628C42.3237 25.4904 43.8431 23.9873 45.7155 23.9873H83.1596C85.0804 23.9873 86.6283 25.5667 86.6111 27.4875C86.5701 32.0742 86.5961 40.7017 87.1395 50.5464C87.6261 59.3602 88.5933 66.2784 89.285 70.384C89.6484 72.541 87.9953 74.5738 85.8079 74.5738H48.145C46.7047 74.5738 45.4404 73.6611 45.1154 72.2579C44.4172 69.2436 43.3302 63.1257 42.8915 52.9745C42.424 42.1545 42.3372 32.3183 42.3274 27.3628Z" fill="white" stroke="#171A1D" stroke-width="0.852564"/>
<rect opacity="0.711496" x="47.449" y="37.6289" width="13.641" height="4.09231" rx="1.02308" fill="#7FB2FF"/>
<rect x="47.449" y="37.6289" width="13.641" height="4.09231" fill="#9AC2FF"/>
<rect opacity="0.3" x="47.449" y="45.4717" width="30.6923" height="4.09231" fill="#7FB2FF"/>
<rect opacity="0.3" x="47.449" y="53.3154" width="17.0513" height="4.09231" fill="#7FB2FF"/>
<path d="M64.4998 16.3145C67.7957 16.3145 70.4684 18.9863 70.4685 22.2822C70.4685 22.5719 70.4478 22.8571 70.408 23.1357L76.4363 23.1348C78.2569 23.1349 79.7444 24.562 79.8416 26.3584L79.8464 26.5449H49.1541C49.1542 24.6617 50.6809 23.1348 52.5642 23.1348L58.5925 23.1357C58.5527 22.8571 58.532 22.5719 58.532 22.2822C58.5321 18.9865 61.204 16.3147 64.4998 16.3145ZM64.4998 18.8721C63.5583 18.8723 62.7947 19.6356 62.7947 20.5771C62.7947 21.5187 63.5582 22.282 64.4998 22.2822C65.4415 22.2822 66.2058 21.5189 66.2058 20.5771C66.2057 19.6355 65.4414 18.8721 64.4998 18.8721Z" fill="url(#paint0_linear_452_9533)"/>
<path d="M103.412 53.999C109.501 50.0661 114.025 45.4617 116.986 40.1859C123.392 28.5328 113.755 27.1465 110.216 29.2457C106.677 31.3448 107.729 37.298 115.001 35.5597C122.272 33.8214 125.293 24.254 124.794 14.731" stroke="#171A1D" stroke-width="0.852564" stroke-linecap="round"/>
<path fill-rule="evenodd" clip-rule="evenodd" d="M69.9407 56.5673C69.9407 56.5673 71.7806 56.7605 74.9913 56.1349C78.2259 55.5047 80.3869 53.88 84.3821 54.7654C88.8245 55.7499 91.0087 59.5598 93.4297 59.732C94.2485 59.8598 95.7975 59.4125 97.0295 57.818C97.1046 57.7208 96.9178 59.0818 96.9178 59.0818C96.9178 59.0818 88.223 65.0112 80.9395 62.8515C73.6559 60.6918 69.9407 56.5673 69.9407 56.5673Z" fill="white" stroke="black" stroke-width="0.682051" stroke-linejoin="round"/>
<path fill-rule="evenodd" clip-rule="evenodd" d="M69.9407 56.5671C69.9407 56.5671 73.0596 62.6061 79.1464 64.702C84.2674 66.4653 88.8455 64.7679 93.3923 61.5425C95.8087 59.9563 96.9179 59.0817 96.9179 59.0817C96.9179 59.0817 88.223 65.0111 80.9395 62.8514C73.656 60.6917 69.9407 56.5671 69.9407 56.5671Z" fill="white" stroke="black" stroke-width="0.682051" stroke-linejoin="round"/>
<circle cx="33.8076" cy="25.6926" r="8.52564" fill="#71D0FF"/>
</g>
<defs>
<linearGradient id="paint0_linear_452_9533" x1="49.1541" y1="16.3145" x2="49.1541" y2="26.5449" gradientUnits="userSpaceOnUse">
<stop stop-color="#33383E"/>
<stop offset="1" stop-color="#171A1D"/>
</linearGradient>
</defs>
</svg>
