<svg width="24" height="24" viewBox="0 0 24 24" fill="none" xmlns="http://www.w3.org/2000/svg">
    <path fill-rule="evenodd" clip-rule="evenodd" d="M19.451 9.39854C20.0036 9.22231 20.568 9.63491 20.5682 10.2149V18.3604C20.5682 19.0999 20.0936 19.7566 19.3914 19.9884L13.074 22.0733C12.3764 22.3036 11.6233 22.3036 10.9256 22.0733L4.60822 19.9884C3.90613 19.7565 3.43146 19.0998 3.43146 18.3604V10.2149C3.43164 9.63491 3.99607 9.22231 4.54865 9.39854L10.9569 11.4454C11.6353 11.6621 12.3644 11.6621 13.0428 11.4454L15.4246 10.6837V16.1944C15.4246 16.6676 15.8079 17.0518 16.2811 17.0519C16.7543 17.0519 17.1375 16.6676 17.1375 16.1944V10.1368L19.451 9.39854ZM10.9158 1.92881C11.6194 1.6943 12.3803 1.6943 13.0838 1.92881L22.4139 5.03916C23.1948 5.29969 23.195 6.40476 22.4139 6.66514L13.0838 9.77451C12.3803 10.009 11.6194 10.009 10.9158 9.77451L1.58576 6.66514C0.804675 6.40477 0.804818 5.29969 1.58576 5.03916L10.9158 1.92881Z" fill="#096DD9"/>
</svg>
