<svg width="24" height="24" viewBox="0 0 24 24" fill="none" xmlns="http://www.w3.org/2000/svg">
    <path fill-rule="evenodd" clip-rule="evenodd" d="M6.67897 2.53385C6.68854 2.61844 6.70177 2.70334 6.71877 2.78835L6.82627 3.32583C6.98424 4.11571 7.14823 4.54779 7.45339 4.97439C7.74722 5.38515 8.13225 5.7008 8.59266 5.90837C9.07082 6.12393 9.52667 6.2 10.3322 6.2H14.1096C14.9151 6.2 15.371 6.12393 15.8492 5.90837C16.3096 5.7008 16.6946 5.38515 16.9884 4.97439C17.2936 4.54779 17.4576 4.11571 17.6155 3.32583L17.723 2.78835C17.7389 2.70887 17.7516 2.62883 17.761 2.54843C18.8975 2.60426 19.4239 2.77995 19.9537 3.06331C20.6055 3.41192 21.1171 3.9235 21.4657 4.57535C21.8143 5.22721 22 5.87378 22 7.65682V17.4013C22 19.1843 21.8143 19.8309 21.4657 20.4827C21.1171 21.1346 20.6055 21.6462 19.9537 21.9948C19.3018 22.3434 18.6553 22.529 16.8722 22.529H7.12777C5.34473 22.529 4.69816 22.3434 4.04631 21.9948C3.39446 21.6462 2.88288 21.1346 2.53427 20.4827C2.18565 19.8309 2 19.1843 2 17.4013V7.65682C2 5.87378 2.18565 5.22721 2.53427 4.57535C2.88288 3.9235 3.39446 3.41192 4.04631 3.06331C4.62954 2.75139 5.20855 2.56994 6.60115 2.53519L6.67897 2.53385ZM16 15.3357H8C7.44772 15.3357 7 15.7835 7 16.3357C7 16.888 7.44772 17.3357 8 17.3357H16C16.5523 17.3357 17 16.888 17 16.3357C17 15.7835 16.5523 15.3357 16 15.3357ZM16 10.3357H8C7.44772 10.3357 7 10.7835 7 11.3357C7 11.888 7.44772 12.3357 8 12.3357H16C16.5523 12.3357 17 11.888 17 11.3357C17 10.7835 16.5523 10.3357 16 10.3357ZM14.7813 1.5C15.3336 1.5 15.7813 1.94772 15.7813 2.5C15.7813 2.56585 15.7748 2.63154 15.7619 2.69612L15.6544 3.2336C15.5475 3.76806 15.4803 3.94504 15.3618 4.11079C15.2733 4.23451 15.1658 4.32257 15.0272 4.38509C14.8414 4.46884 14.6547 4.5 14.1096 4.5H10.3322C9.78714 4.5 9.60042 4.46884 9.41464 4.38509C9.27597 4.32257 9.16856 4.23451 9.08006 4.11079C8.96149 3.94504 8.89432 3.76806 8.78743 3.2336L8.67993 2.69612C8.57162 2.15456 8.92284 1.62773 9.4644 1.51942C9.52897 1.5065 9.59466 1.5 9.66051 1.5H14.7813Z" fill="#096DD9"/>
</svg>
