<svg width="16" height="16" viewBox="0 0 16 16" fill="none" xmlns="http://www.w3.org/2000/svg">
    <g opacity="0.4">
        <path fill-rule="evenodd" clip-rule="evenodd"
            d="M8.58333 0.5C10.2586 0.5 11.6167 1.85807 11.6167 3.53333V4.03141C12.8907 4.03254 13.5606 4.04987 14.0804 4.31471C14.5696 4.56398 14.9673 4.96173 15.2166 5.45095C15.5 6.00712 15.5 6.73519 15.5 8.19133V11.2713C15.5 12.7275 15.5 13.4555 15.2166 14.0117C14.9673 14.5009 14.5696 14.8987 14.0804 15.1479C13.5242 15.4313 12.7961 15.4313 11.34 15.4313H4.66C3.20386 15.4313 2.4758 15.4313 1.91962 15.1479C1.4304 14.8987 1.03265 14.5009 0.783383 14.0117C0.5 13.4555 0.5 12.7275 0.5 11.2713V8.19133C0.5 6.73519 0.5 6.00712 0.783383 5.45095C1.03265 4.96173 1.4304 4.56398 1.91962 4.31471C2.4394 4.04987 3.10931 4.03254 4.38333 4.03141V3.53333C4.38333 1.85807 5.7414 0.5 7.41667 0.5H8.58333ZM8.58333 1.9H7.41667C6.5146 1.9 5.78333 2.63127 5.78333 3.53333L5.78246 4H10.2161L10.2167 3.53333C10.2167 2.67422 9.55338 1.97003 8.71098 1.90491L8.58333 1.9Z"
            fill="#556EA3" />
        <rect x="5.5" y="6.99219" width="5" height="1.2" rx="0.6" fill="white" />
    </g>
</svg>
