<svg width="20" height="21" viewBox="0 0 20 21" fill="none" xmlns="http://www.w3.org/2000/svg">
<path d="M15.5869 0C15.6525 0 15.7061 0.0535226 15.7061 0.119141V6C15.7061 7.73658 14.9673 9.29988 13.7881 10.3955H15C17.7614 10.3955 19.9999 12.6342 20 15.3955C20 18.1569 17.7614 20.3955 15 20.3955H1C0.447715 20.3955 0 19.9478 0 19.3955V16.3955C0.000114632 13.2042 2.49174 10.5955 5.63574 10.4072C4.4494 9.31107 3.70605 7.7426 3.70605 6C3.70605 2.68629 6.39235 0 9.70605 0H15.5869ZM9 12V16.2002H10.5996V12H9Z" fill="#AEBBCD"/>
</svg>
