<svg width="24" height="24" viewBox="0 0 24 24" fill="none" xmlns="http://www.w3.org/2000/svg">
    <path d="M12 1.5C12.6878 1.5 13.3599 1.56712 14.0107 1.69336C13.3864 2.00447 13.4147 2.70698 13.6914 4.24512C13.8385 5.06302 14.213 5.54449 14.832 5.93164C14.8893 5.96747 14.9486 6.00299 15.0439 6.05957C15.3334 6.23298 15.3231 6.21432 15.2598 6.61914C15.2004 6.99862 15.2174 6.98953 14.583 7.03418C14.1302 7.06605 13.9279 7.08913 13.6426 7.16016C13.2135 7.26702 12.8307 7.45516 12.4883 7.75293C11.738 8.40557 11.6836 9.05676 11.873 10.5674C11.8821 10.6393 11.8819 10.6394 11.8906 10.71C12.0138 11.7155 11.9489 12.0429 11.585 12.2461C11.4539 12.3191 11.3264 12.3472 11.1807 12.3398C10.8365 12.3223 10.4411 12.1349 9.71484 11.667C8.14232 10.6539 7.67489 10.4535 6.79395 10.9336C5.93217 11.4033 5.70276 12.1081 5.57422 13.5352C5.56799 13.6048 5.56759 13.6051 5.56152 13.6738C5.48952 14.4894 5.41586 14.7982 5.30273 14.9014C5.00182 15.1758 4.35975 15.1758 3.29785 14.75C2.88777 14.5856 2.42226 14.7852 2.25781 15.1953C2.09353 15.6053 2.29216 16.0709 2.70215 16.2354C4.27204 16.8649 5.52448 16.8648 6.38086 16.084C6.92283 15.5897 7.04322 15.0838 7.15527 13.8145C7.16131 13.7461 7.161 13.7457 7.16699 13.6787C7.24737 12.7863 7.35785 12.4488 7.55957 12.3389C7.6412 12.2944 7.91966 12.4132 8.84863 13.0117C9.80898 13.6304 10.3779 13.9017 11.0986 13.9385C11.5402 13.961 11.9669 13.8649 12.3652 13.6426C13.4976 13.0104 13.6756 12.1161 13.4795 10.5156C13.4703 10.4414 13.4701 10.441 13.4609 10.3682C13.3413 9.41427 13.3662 9.10967 13.5381 8.95996C13.6796 8.83688 13.8347 8.76137 14.0293 8.71289C14.1942 8.67185 14.3355 8.65521 14.6953 8.62988C15.9853 8.53902 16.6379 8.16452 16.8408 6.86621C17.014 5.75762 16.6754 5.17222 15.8662 4.6875C15.7646 4.62715 15.7221 4.60111 15.6807 4.5752C15.4176 4.41068 15.3262 4.29325 15.2666 3.96191L15.2305 3.75195C15.1637 3.34912 15.1309 3.04291 15.1309 2.84375L15.1299 2.8291L15.1787 2.75488C15.2779 2.57577 15.309 2.35881 15.248 2.14648C15.2324 2.0922 15.2109 2.0412 15.1855 1.99316C19.427 3.34217 22.5 7.31169 22.5 12C22.5 13.4494 22.2059 14.83 21.6748 16.0859C21.6372 16.0116 21.5877 15.9418 21.5254 15.8799C19.2332 13.6014 17.3026 12.7485 15.7109 13.583C15.0295 13.9403 14.5732 14.3686 14.3193 14.8877C14.0932 15.3503 14.0602 15.7043 14.0869 16.3555C14.0989 16.6466 14.0937 16.743 14.0742 16.7959C14.0312 16.9119 13.9802 16.9775 13.8203 17.125C13.7535 17.1861 13.7068 17.2291 13.6729 17.2607C13.606 17.323 13.5489 17.3791 13.4922 17.4385C13.1596 17.7868 12.9166 18.1918 12.7363 18.7578C12.3699 19.9085 12.8148 21.0844 13.9385 22.2344C13.9634 22.2598 13.9903 22.2823 14.0176 22.3037C13.3645 22.4309 12.6903 22.5 12 22.5C6.20101 22.5 1.50001 17.799 1.5 12C1.5 6.20101 6.20101 1.5 12 1.5ZM16.4541 15C17.2283 14.5943 18.5501 15.1783 20.3975 17.0146C20.5892 17.2052 20.8531 17.277 21.1006 17.2334C19.8153 19.4636 17.7363 21.1764 15.2471 21.9854C15.3681 21.6977 15.3146 21.3535 15.083 21.1162C14.3326 20.3482 14.1024 19.7403 14.2607 19.2432C14.3664 18.9114 14.483 18.7182 14.6494 18.5439C14.6821 18.5097 14.7178 18.4743 14.7637 18.4316C14.7907 18.4065 14.8296 18.371 14.9053 18.3018C15.2341 17.9983 15.4274 17.7477 15.5742 17.3516C15.6945 17.0267 15.7065 16.8011 15.6855 16.29C15.6692 15.8917 15.6829 15.7421 15.7568 15.5908C15.849 15.4024 16.0557 15.2089 16.4541 15Z" fill="#AEBBCD"/>
</svg>
