<svg width="22" height="21" viewBox="0 0 22 21" fill="none" xmlns="http://www.w3.org/2000/svg">
<path d="M18.451 7.64561C19.0036 7.46938 19.568 7.88198 19.5682 8.46201V16.6075C19.5682 17.3469 19.0936 18.0036 18.3914 18.2354L12.074 20.3204C11.3764 20.5507 10.6233 20.5507 9.9256 20.3204L3.60822 18.2354C2.90613 18.0036 2.43146 17.3469 2.43146 16.6075V8.46201C2.43164 7.88198 2.99607 7.46938 3.54865 7.64561L9.95685 9.69248C10.6353 9.90919 11.3644 9.9092 12.0428 9.69248L14.4246 8.93076V14.4415C14.4246 14.9147 14.8079 15.2989 15.2811 15.2989C15.7543 15.2989 16.1375 14.9147 16.1375 14.4415V8.38389L18.451 7.64561ZM9.91584 0.175879C10.6194 -0.0586264 11.3803 -0.0586264 12.0838 0.175879L21.4139 3.28623C22.1948 3.54676 22.195 4.65183 21.4139 4.91221L12.0838 8.02158C11.3803 8.25609 10.6194 8.25609 9.91584 8.02158L0.585761 4.91221C-0.195325 4.65184 -0.195182 3.54676 0.585761 3.28623L9.91584 0.175879Z" fill="#AEBBCD"/>
</svg>
