<svg width="24" height="24" viewBox="0 0 24 24" fill="none" xmlns="http://www.w3.org/2000/svg">
    <path d="M7 5.83333C7 3.99238 8.49238 2.5 10.3333 2.5H13.6667C15.5076 2.5 17 3.99238 17 5.83333V8.5H7V5.83333Z" stroke="#AEBBCD" stroke-width="2" stroke-linecap="round" stroke-linejoin="round"/>
    <path d="M18.75 6.5C20.8211 6.5 22.5 8.17893 22.5 10.25V18.75C22.5 20.8211 20.8211 22.5 18.75 22.5H5.25C3.17893 22.5 1.5 20.8211 1.5 18.75V10.25C1.5 8.17893 3.17893 6.5 5.25 6.5H18.75ZM9 9.6709C8.44772 9.6709 8 10.1186 8 10.6709C8.00006 11.2231 8.44775 11.6709 9 11.6709H15C15.5522 11.6709 15.9999 11.2231 16 10.6709C16 10.1186 15.5523 9.6709 15 9.6709H9Z" fill="#AEBBCD"/>
</svg>
