<svg width="20" height="22" viewBox="0 0 20 22" fill="none" xmlns="http://www.w3.org/2000/svg">
<path fill-rule="evenodd" clip-rule="evenodd" d="M4.67897 1.03385C4.68854 1.11844 4.70177 1.20334 4.71877 1.28835L4.82627 1.82583C4.98424 2.61571 5.14823 3.04779 5.45339 3.47439C5.74722 3.88515 6.13225 4.2008 6.59266 4.40837C7.07082 4.62393 7.52667 4.7 8.33219 4.7H12.1096C12.9151 4.7 13.371 4.62393 13.8492 4.40837C14.3096 4.2008 14.6946 3.88515 14.9884 3.47439C15.2936 3.04779 15.4576 2.61571 15.6155 1.82583L15.723 1.28835C15.7389 1.20887 15.7516 1.12883 15.761 1.04843C16.8975 1.10426 17.4239 1.27995 17.9537 1.56331C18.6055 1.91192 19.1171 2.4235 19.4657 3.07535C19.8143 3.72721 20 4.37378 20 6.15682V15.9013C20 17.6843 19.8143 18.3309 19.4657 18.9827C19.1171 19.6346 18.6055 20.1462 17.9537 20.4948C17.3018 20.8434 16.6553 21.029 14.8722 21.029H5.12777C3.34473 21.029 2.69816 20.8434 2.04631 20.4948C1.39446 20.1462 0.88288 19.6346 0.534266 18.9827C0.185651 18.3309 0 17.6843 0 15.9013V6.15682C0 4.37378 0.185651 3.72721 0.534266 3.07535C0.88288 2.4235 1.39446 1.91192 2.04631 1.56331C2.62954 1.25139 3.20855 1.06994 4.60115 1.03519L4.67897 1.03385ZM14 13.8357H6C5.44772 13.8357 5 14.2835 5 14.8357C5 15.388 5.44772 15.8357 6 15.8357H14C14.5523 15.8357 15 15.388 15 14.8357C15 14.2835 14.5523 13.8357 14 13.8357ZM14 8.83575H6C5.44772 8.83575 5 9.28346 5 9.83575C5 10.388 5.44772 10.8357 6 10.8357H14C14.5523 10.8357 15 10.388 15 9.83575C15 9.28346 14.5523 8.83575 14 8.83575ZM12.7813 0C13.3336 0 13.7813 0.447715 13.7813 1C13.7813 1.06585 13.7748 1.13154 13.7619 1.19612L13.6544 1.7336C13.5475 2.26806 13.4803 2.44504 13.3618 2.61079C13.2733 2.73451 13.1658 2.82257 13.0272 2.88509C12.8414 2.96884 12.6547 3 12.1096 3H8.33219C7.78714 3 7.60042 2.96884 7.41464 2.88509C7.27597 2.82257 7.16856 2.73451 7.08006 2.61079C6.96149 2.44504 6.89432 2.26806 6.78743 1.7336L6.67993 1.19612C6.57162 0.654556 6.92284 0.127731 7.4644 0.0194193C7.52897 0.00650468 7.59466 0 7.66051 0H12.7813Z" fill="#AEBBCD"/>
</svg>
