<svg width="27" height="25" viewBox="0 0 27 25" fill="none" xmlns="http://www.w3.org/2000/svg">
<g filter="url(#filter0_d_149_10320)">
<rect opacity="0.755322" y="4.125" width="26.5833" height="20.1667" rx="4" fill="url(#paint0_linear_149_10320)"/>
<path d="M6.875 3C6.875 1.34315 8.21815 0 9.875 0H16.7083C18.3652 0 19.7083 1.34315 19.7083 3V7.33333H6.875V3Z" fill="url(#paint1_linear_149_10320)"/>
<path d="M20.1836 4.125C22.4236 4.125 23.5438 4.12467 24.3994 4.56055C25.1519 4.94398 25.764 5.55611 26.1475 6.30859C26.5834 7.16424 26.583 8.28518 26.583 10.5254V13.4561C22.9421 14.654 18.3215 15.374 13.292 15.374C8.26219 15.374 3.64103 14.6541 1.63272e-09 13.4561V10.5254C1.63272e-09 8.28518 -0.000427061 7.16424 0.435547 6.30859C0.819046 5.55602 1.43198 4.94401 2.18457 4.56055C3.04015 4.12486 4.16067 4.125 6.40039 4.125H20.1836Z" fill="url(#paint2_linear_149_10320)"/>
</g>
<defs>
<filter id="filter0_d_149_10320" x="-12" y="-2" width="50.5835" height="48.2915" filterUnits="userSpaceOnUse" color-interpolation-filters="sRGB">
<feFlood flood-opacity="0" result="BackgroundImageFix"/>
<feColorMatrix in="SourceAlpha" type="matrix" values="0 0 0 0 0 0 0 0 0 0 0 0 0 0 0 0 0 0 127 0" result="hardAlpha"/>
<feOffset dy="10"/>
<feGaussianBlur stdDeviation="6"/>
<feColorMatrix type="matrix" values="0 0 0 0 0.659845 0 0 0 0 0.313845 0 0 0 0 0 0 0 0 0.2 0"/>
<feBlend mode="normal" in2="BackgroundImageFix" result="effect1_dropShadow_149_10320"/>
<feBlend mode="normal" in="SourceGraphic" in2="effect1_dropShadow_149_10320" result="shape"/>
</filter>
<linearGradient id="paint0_linear_149_10320" x1="6.64583" y1="14.2083" x2="6.64583" y2="24.2917" gradientUnits="userSpaceOnUse">
<stop stop-color="#FFEBD8"/>
<stop offset="1" stop-color="white"/>
</linearGradient>
<linearGradient id="paint1_linear_149_10320" x1="19.4408" y1="7.33333" x2="19.4408" y2="0.30575" gradientUnits="userSpaceOnUse">
<stop stop-color="white" stop-opacity="0.86"/>
<stop offset="1" stop-color="white"/>
</linearGradient>
<linearGradient id="paint2_linear_149_10320" x1="26.0288" y1="15.374" x2="26.0288" y2="4.59401" gradientUnits="userSpaceOnUse">
<stop stop-color="white" stop-opacity="0.83"/>
<stop offset="1" stop-color="white"/>
</linearGradient>
</defs>
</svg>
