<svg width="23" height="22" viewBox="0 0 23 22" fill="none" xmlns="http://www.w3.org/2000/svg">
    <path d="M5.58325 5.4V3.75C5.58325 2.23122 6.85692 1 8.42808 1H13.7384C15.3096 1 16.5833 2.23122 16.5833 3.75V5.4" stroke="#096DD9" stroke-width="2" stroke-linecap="round" stroke-linejoin="round"/>
    <path fill-rule="evenodd" clip-rule="evenodd" d="M1 8.39941C1 6.74256 2.34315 5.39941 4 5.39941H18.1667C19.8235 5.39941 21.1667 6.74256 21.1667 8.39941V17.9827C21.1667 19.6396 19.8235 20.9827 18.1667 20.9827H4C2.34314 20.9827 1 19.6396 1 17.9827V8.39941Z" stroke="#333333" stroke-width="2" stroke-linejoin="round"/>
    <path d="M21.1667 10.1494C18.3211 11.0548 14.8412 11.5873 11.0833 11.5873C7.32547 11.5873 3.84557 11.0548 1 10.1494" stroke="#333333" stroke-width="2" stroke-linejoin="round"/>
</svg>
