<svg width="21" height="23" viewBox="0 0 21 23" fill="none" xmlns="http://www.w3.org/2000/svg">
    <path fill-rule="evenodd" clip-rule="evenodd" d="M16.3333 21.8542C17.9902 21.8542 19.3333 20.511 19.3333 18.8542V6.72917H13.6042V1H4C2.34315 1 1 2.34315 1 4V18.8542C1 20.511 2.34315 21.8542 4 21.8542H16.3333Z" stroke="#262626" stroke-width="2" stroke-linecap="round" stroke-linejoin="round"/>
    <path d="M13.6042 1L19.3334 6.72917" stroke="#262626" stroke-width="2" stroke-linecap="round" stroke-linejoin="round"/>
    <path d="M6.5 17.0413H13.8333" stroke="#096DD9" stroke-width="2" stroke-linecap="round" stroke-linejoin="round"/>
    <path fill-rule="evenodd" clip-rule="evenodd" d="M10.3062 13.2191C10.2188 13.1731 10.1144 13.1731 10.027 13.2191L8.81802 13.8547C8.37785 14.0861 7.86339 13.7123 7.94746 13.2222L8.17835 11.8759C8.19505 11.7786 8.16278 11.6793 8.09208 11.6104L7.11397 10.657C6.75786 10.3099 6.95437 9.70509 7.4465 9.63358L8.79821 9.43717C8.89592 9.42297 8.98039 9.3616 9.02409 9.27305L9.62859 8.0482C9.84868 7.60225 10.4846 7.60225 10.7047 8.0482L11.3092 9.27305C11.3529 9.3616 11.4373 9.42297 11.5351 9.43717L12.8868 9.63358C13.3789 9.70509 13.5754 10.3099 13.2193 10.657L12.2412 11.6104C12.1705 11.6793 12.1382 11.7786 12.1549 11.876L12.3858 13.2222C12.4699 13.7123 11.9554 14.0861 11.5152 13.8547L10.3062 13.2191Z" fill="#096DD9"/>
</svg>
