<svg width="19" height="21" viewBox="0 0 19 21" fill="none" xmlns="http://www.w3.org/2000/svg">
<path fill-rule="evenodd" clip-rule="evenodd" d="M15.3333 20.8542C16.9902 20.8542 18.3333 19.511 18.3333 17.8542V5.72917H12.6042V0H3C1.34315 0 0 1.34315 0 3V17.8542C0 19.511 1.34315 20.8542 3 20.8542H15.3333Z" stroke="#262626" stroke-width="2" stroke-linecap="round" stroke-linejoin="round"/>
<path d="M12.604 0L18.3332 5.72917" stroke="#262626" stroke-width="2" stroke-linecap="round" stroke-linejoin="round"/>
<path d="M5.5 16.0418H12.8333" stroke="#096DD9" stroke-width="2" stroke-linecap="round" stroke-linejoin="round"/>
<path fill-rule="evenodd" clip-rule="evenodd" d="M9.30623 12.2196C9.21883 12.1736 9.11442 12.1736 9.02703 12.2196L7.81802 12.8552C7.37785 13.0866 6.86339 12.7128 6.94746 12.2227L7.17835 10.8764C7.19505 10.7791 7.16278 10.6798 7.09208 10.6109L6.11397 9.65748C5.75786 9.31036 5.95437 8.70558 6.4465 8.63407L7.79821 8.43765C7.89592 8.42345 7.98039 8.36208 8.02409 8.27354L8.62859 7.04869C8.84868 6.60274 9.48458 6.60274 9.70467 7.04869L10.3092 8.27354C10.3529 8.36208 10.4373 8.42345 10.5351 8.43765L11.8868 8.63407C12.3789 8.70558 12.5754 9.31036 12.2193 9.65748L11.2412 10.6109C11.1705 10.6798 11.1382 10.7791 11.1549 10.8764L11.3858 12.2227C11.4699 12.7128 10.9554 13.0866 10.5152 12.8552L9.30623 12.2196Z" fill="#096DD9"/>
</svg>
