<svg width="16" height="16" viewBox="0 0 16 16" fill="none" xmlns="http://www.w3.org/2000/svg">
<g opacity="0.4">
<path d="M8.58398 0.5C10.2589 0.500352 11.6171 1.85822 11.6172 3.5332V4.03223C12.8906 4.03336 13.5604 4.04982 14.0801 4.31445C14.5693 4.56372 14.9675 4.96195 15.2168 5.45117C15.5001 6.00731 15.5 6.73549 15.5 8.19141V11.2715C15.5 12.7275 15.5001 13.4556 15.2168 14.0117C14.9675 14.5009 14.5693 14.8982 14.0801 15.1475C13.5239 15.4308 12.7959 15.4316 11.3398 15.4316H4.66016C3.20406 15.4316 2.47609 15.4308 1.91992 15.1475C1.4307 14.8982 1.03247 14.5009 0.783203 14.0117C0.499861 13.4556 0.5 12.7275 0.5 11.2715V8.19141C0.5 6.73548 0.499946 6.00731 0.783203 5.45117C1.03247 4.96195 1.4307 4.56372 1.91992 4.31445C2.43971 4.04975 3.10975 4.03336 4.38379 4.03223V3.5332C4.38386 1.85804 5.74183 0.50007 7.41699 0.5H8.58398ZM7.41699 1.90039C6.51503 1.90046 5.78425 2.63124 5.78418 3.5332L5.7832 4H10.2168V3.5332C10.2167 2.67448 9.55382 1.97085 8.71191 1.90527L8.58398 1.90039H7.41699Z" fill="#556EA3"/>
<rect x="5.5" y="6.99219" width="5" height="1.2" rx="0.6" fill="white"/>
</g>
</svg>
