<svg width="24" height="24" viewBox="0 0 24 24" fill="none" xmlns="http://www.w3.org/2000/svg">
    <path fill-rule="evenodd" clip-rule="evenodd" d="M11.7123 18.7199L8.44609 20.4371C7.53983 20.9135 6.41893 20.5651 5.94248 19.6588C5.75276 19.298 5.68729 18.8846 5.75621 18.4828L6.38001 14.8458C6.41439 14.6453 6.34793 14.4408 6.20228 14.2988L3.55985 11.7231C2.82667 11.0084 2.81167 9.83468 3.52634 9.1015C3.81093 8.80955 4.18382 8.61955 4.58729 8.56092L8.23905 8.03029C8.44032 8.00104 8.61432 7.87463 8.70433 7.69224L10.3374 4.38319C10.7906 3.46505 11.9022 3.08809 12.8203 3.54122C13.1859 3.72165 13.4819 4.01758 13.6623 4.38319L15.2954 7.69224C15.3854 7.87463 15.5594 8.00104 15.7607 8.03029L19.4125 8.56092C20.4257 8.70815 21.1277 9.64889 20.9805 10.6621C20.9219 11.0656 20.7319 11.4385 20.4399 11.7231L17.7975 14.2988C17.6518 14.4408 17.5854 14.6453 17.6198 14.8458L18.2435 18.4828C18.4166 19.4919 17.7389 20.4503 16.7297 20.6234C16.3279 20.6923 15.9145 20.6268 15.5537 20.4371L12.2874 18.7199C12.1434 18.6442 11.977 18.6291 11.824 18.6745L11.7123 18.7199Z" stroke="#262626" stroke-width="1.6" stroke-linecap="round" stroke-linejoin="round"/>
</svg>
