<svg width="24" height="24" viewBox="0 0 24 24" fill="none" xmlns="http://www.w3.org/2000/svg">
    <path fill-rule="evenodd" clip-rule="evenodd" d="M14.9903 20C16.0534 20 17.0371 19.4374 17.5761 18.521L20.5172 13.521C21.0695 12.5822 21.0695 11.4178 20.5172 10.479L17.5761 5.47897C17.0371 4.56264 16.0534 4 14.9903 4H9.01018C7.94709 4 6.9634 4.56261 6.42439 5.47892L3.48315 10.4789C2.93087 11.4178 2.93087 12.5822 3.48315 13.5211L6.42439 18.5211C6.9634 19.4374 7.94709 20 9.01018 20H14.9903Z" stroke="white" stroke-width="1.6" stroke-linecap="round" stroke-linejoin="round"/>
    <path fill-rule="evenodd" clip-rule="evenodd" d="M11.9999 14.7782C13.5341 14.7782 14.7777 13.5345 14.7777 12.0004C14.7777 10.4663 13.5341 9.22266 11.9999 9.22266C10.4658 9.22266 9.22217 10.4663 9.22217 12.0004C9.22217 13.5345 10.4658 14.7782 11.9999 14.7782Z" stroke="white" stroke-width="1.6" stroke-linecap="round" stroke-linejoin="round"/>
</svg>
