<svg width="19" height="16" viewBox="0 0 19 16" fill="none" xmlns="http://www.w3.org/2000/svg">
<path fill-rule="evenodd" clip-rule="evenodd" d="M12.4019 16C13.465 16 14.4487 15.4374 14.9877 14.521L17.9288 9.52103C18.4811 8.5822 18.4811 7.4178 17.9288 6.47897L14.9877 1.47897C14.4487 0.562639 13.465 0 12.4019 0H6.4218C5.35872 0 4.37502 0.562614 3.83601 1.47892L0.894773 6.47892C0.342492 7.41778 0.342492 8.58222 0.894773 9.52108L3.83601 14.5211C4.37502 15.4374 5.35871 16 6.4218 16H12.4019Z" stroke="#262626" stroke-width="1.6" stroke-linecap="round" stroke-linejoin="round"/>
<path fill-rule="evenodd" clip-rule="evenodd" d="M9.41157 10.7782C10.9457 10.7782 12.1893 9.53455 12.1893 8.00043C12.1893 6.46632 10.9457 5.22266 9.41157 5.22266C7.87746 5.22266 6.63379 6.46632 6.63379 8.00043C6.63379 9.53455 7.87746 10.7782 9.41157 10.7782Z" stroke="#262626" stroke-width="1.6" stroke-linecap="round" stroke-linejoin="round"/>
</svg>
