<svg width="42" height="18" viewBox="0 0 42 18" fill="none" xmlns="http://www.w3.org/2000/svg">
<path fill-rule="evenodd" clip-rule="evenodd" d="M0 9C0 4.02944 4.02944 0 9 0L33 0C37.9706 0 42 4.02944 42 9C42 13.9706 37.9706 18 33 18H9C4.02944 18 0 13.9706 0 9Z" fill="url(#paint0_linear_191_10236)"/>
<mask id="mask0_191_10236" style="mask-type:luminance" maskUnits="userSpaceOnUse" x="0" y="0" width="42" height="18">
<path fill-rule="evenodd" clip-rule="evenodd" d="M0 9C0 4.02944 4.02944 0 9 0L33 0C37.9706 0 42 4.02944 42 9C42 13.9706 37.9706 18 33 18H9C4.02944 18 0 13.9706 0 9Z" fill="white"/>
</mask>
<g mask="url(#mask0_191_10236)">
<g opacity="0.638997" filter="url(#filter0_f_191_10236)" style="mix-blend-mode:hard-light">
<ellipse cx="61" cy="-4" rx="30" ry="11" fill="#A0EAFF"/>
</g>
<g opacity="0.638997" filter="url(#filter1_f_191_10236)" style="mix-blend-mode:hard-light">
<ellipse cx="2.5" cy="22" rx="10.5" ry="11" fill="#A0EAFF"/>
</g>
<g filter="url(#filter2_f_191_10236)" style="mix-blend-mode:hard-light">
<ellipse cx="42" cy="19.5" rx="30" ry="4.5" fill="#B698FF"/>
</g>
</g>
<defs>
<filter id="filter0_f_191_10236" x="10.1791" y="-35.8209" width="101.642" height="63.6418" filterUnits="userSpaceOnUse" color-interpolation-filters="sRGB">
<feFlood flood-opacity="0" result="BackgroundImageFix"/>
<feBlend mode="normal" in="SourceGraphic" in2="BackgroundImageFix" result="shape"/>
<feGaussianBlur stdDeviation="10.4104" result="effect1_foregroundBlur_191_10236"/>
</filter>
<filter id="filter1_f_191_10236" x="-28.8209" y="-9.82088" width="62.6418" height="63.6418" filterUnits="userSpaceOnUse" color-interpolation-filters="sRGB">
<feFlood flood-opacity="0" result="BackgroundImageFix"/>
<feBlend mode="normal" in="SourceGraphic" in2="BackgroundImageFix" result="shape"/>
<feGaussianBlur stdDeviation="10.4104" result="effect1_foregroundBlur_191_10236"/>
</filter>
<filter id="filter2_f_191_10236" x="-1.88059" y="1.11941" width="87.7612" height="36.7612" filterUnits="userSpaceOnUse" color-interpolation-filters="sRGB">
<feFlood flood-opacity="0" result="BackgroundImageFix"/>
<feBlend mode="normal" in="SourceGraphic" in2="BackgroundImageFix" result="shape"/>
<feGaussianBlur stdDeviation="6.94029" result="effect1_foregroundBlur_191_10236"/>
</filter>
<linearGradient id="paint0_linear_191_10236" x1="42" y1="0" x2="0" y2="0" gradientUnits="userSpaceOnUse">
<stop stop-color="#336CFE"/>
<stop offset="1" stop-color="#336CFE"/>
</linearGradient>
</defs>
</svg>
