<svg width="13" height="14" viewBox="0 0 13 14" fill="none" xmlns="http://www.w3.org/2000/svg">
<path d="M5.66699 0C8.79646 0.000176003 11.333 2.53749 11.333 5.66699C11.3329 7.16134 10.7528 8.51891 9.80762 9.53125L12.7881 12.5117C13.0484 12.7721 13.0484 13.1947 12.7881 13.4551C12.5277 13.7153 12.105 13.7154 11.8447 13.4551L8.78613 10.3965C7.89142 10.9877 6.81975 11.3329 5.66699 11.333C2.53749 11.333 0.000176006 8.79646 0 5.66699C0 2.53738 2.53738 0 5.66699 0ZM5.66699 1.33301C3.27376 1.33301 1.33301 3.27376 1.33301 5.66699C1.33318 8.06008 3.27387 10 5.66699 10C8.05997 9.99982 9.99982 8.05997 10 5.66699C10 3.27387 8.06008 1.33318 5.66699 1.33301Z" fill="#A2A3A5"/>
</svg>
