<svg width="24" height="24" viewBox="0 0 24 24" fill="none" xmlns="http://www.w3.org/2000/svg">
<path fill-rule="evenodd" clip-rule="evenodd" d="M18 4C19.6569 4 21 5.34315 21 7V17C21 18.6569 19.6569 20 18 20H6C4.34315 20 3 18.6569 3 17V7C3 5.34315 4.34315 4 6 4H18Z" stroke="#262626" stroke-width="1.6" stroke-linejoin="round"/>
<path fill-rule="evenodd" clip-rule="evenodd" d="M15.6865 12.0231C15.7306 12.0448 15.7663 12.0805 15.788 12.1246L16.4374 13.4412C16.4701 13.507 16.5331 13.5525 16.6059 13.5628L18.0586 13.7743C18.1425 13.7866 18.2122 13.8455 18.2383 13.9262C18.2645 14.0069 18.2426 14.0955 18.1819 14.1547L17.1308 15.1796C17.0782 15.2308 17.0543 15.3047 17.0667 15.3771L17.3149 16.8242C17.3291 16.9078 17.2946 16.9922 17.226 17.042C17.1574 17.0918 17.0665 17.0984 16.9914 17.0591L15.6915 16.3762C15.6265 16.3421 15.5489 16.3421 15.484 16.3762L14.1841 17.0591C14.109 17.0984 14.0181 17.0918 13.9495 17.042C13.8809 16.9922 13.8464 16.9078 13.8605 16.8242L14.1088 15.3771C14.1212 15.3047 14.0972 15.2308 14.0446 15.1796L12.9936 14.1547C12.9329 14.0955 12.911 14.0069 12.9371 13.9262C12.9633 13.8455 13.0329 13.7866 13.1169 13.7743L14.5696 13.5628C14.6424 13.5525 14.7054 13.507 14.7381 13.4412L15.3874 12.1246C15.4136 12.0715 15.4598 12.0309 15.5159 12.0118C15.572 11.9928 15.6334 11.9968 15.6865 12.0231V12.0231Z" fill="#262626"/>
<path d="M6 8.5H11.8001" stroke="#262626" stroke-width="1.6" stroke-linejoin="round"/>
<path d="M6 11.5996H11.8001" stroke="#262626" stroke-width="1.6" stroke-linejoin="round"/>
</svg>
