<svg width="375" height="220" viewBox="0 0 375 220" fill="none" xmlns="http://www.w3.org/2000/svg">
<path fill-rule="evenodd" clip-rule="evenodd" d="M0 0H375V168.8C375 186.722 375 195.683 371.512 202.528C368.444 208.549 363.549 213.444 357.528 216.512C350.683 220 341.722 220 323.8 220H51.2C33.2783 220 24.3175 220 17.4723 216.512C11.4511 213.444 6.55574 208.549 3.48779 202.528C0 195.683 0 186.722 0 168.8V0Z" fill="url(#paint0_linear_191_10614)"/>
<path fill-rule="evenodd" clip-rule="evenodd" d="M0 0H375V168.8C375 186.722 375 195.683 371.512 202.528C368.444 208.549 363.549 213.444 357.528 216.512C350.683 220 341.722 220 323.8 220H51.2C33.2783 220 24.3175 220 17.4723 216.512C11.4511 213.444 6.55574 208.549 3.48779 202.528C0 195.683 0 186.722 0 168.8V0Z" fill="url(#paint1_radial_191_10614)"/>
<path fill-rule="evenodd" clip-rule="evenodd" d="M0 0H375V168.8C375 186.722 375 195.683 371.512 202.528C368.444 208.549 363.549 213.444 357.528 216.512C350.683 220 341.722 220 323.8 220H51.2C33.2783 220 24.3175 220 17.4723 216.512C11.4511 213.444 6.55574 208.549 3.48779 202.528C0 195.683 0 186.722 0 168.8V0Z" fill="url(#paint2_radial_191_10614)"/>
<mask id="mask0_191_10614" style="mask-type:luminance" maskUnits="userSpaceOnUse" x="0" y="0" width="375" height="220">
<path fill-rule="evenodd" clip-rule="evenodd" d="M0 0H375V168.8C375 186.722 375 195.683 371.512 202.528C368.444 208.549 363.549 213.444 357.528 216.512C350.683 220 341.722 220 323.8 220H51.2C33.2783 220 24.3175 220 17.4723 216.512C11.4511 213.444 6.55574 208.549 3.48779 202.528C0 195.683 0 186.722 0 168.8V0Z" fill="white"/>
<path fill-rule="evenodd" clip-rule="evenodd" d="M0 0H375V168.8C375 186.722 375 195.683 371.512 202.528C368.444 208.549 363.549 213.444 357.528 216.512C350.683 220 341.722 220 323.8 220H51.2C33.2783 220 24.3175 220 17.4723 216.512C11.4511 213.444 6.55574 208.549 3.48779 202.528C0 195.683 0 186.722 0 168.8V0Z" stroke="white"/>
</mask>
<g mask="url(#mask0_191_10614)">
</g>
<defs>
<linearGradient id="paint0_linear_191_10614" x1="-169.768" y1="106.655" x2="4.87799" y2="420.029" gradientUnits="userSpaceOnUse">
<stop stop-color="#3F9BF7"/>
<stop offset="1" stop-color="#2F73E5"/>
</linearGradient>
<radialGradient id="paint1_radial_191_10614" cx="0" cy="0" r="1" gradientTransform="matrix(-254.011 243.593 -225.341 -80.8745 362.884 213.444)" gradientUnits="userSpaceOnUse">
<stop stop-color="#456DFF"/>
<stop offset="1" stop-color="#3584EC" stop-opacity="0.01"/>
</radialGradient>
<radialGradient id="paint2_radial_191_10614" cx="0" cy="0" r="1" gradientTransform="matrix(-239.394 271.078 -317.952 -96.6414 -20.7654 -13.1904)" gradientUnits="userSpaceOnUse">
<stop stop-color="#1FDAFF"/>
<stop offset="1" stop-color="#3584EC" stop-opacity="0.01"/>
</radialGradient>
</defs>
</svg>
