<svg width="12" height="13" viewBox="0 0 12 13" fill="none" xmlns="http://www.w3.org/2000/svg">
<g opacity="0.6">
<path d="M10.3333 5.33398C10.3333 8.35657 10.9999 9.00065 10.9999 12.6673H0.333252C0.333252 9.00065 0.999919 8.35657 0.999919 5.33398" stroke="#262626" stroke-width="1.6" stroke-linejoin="round"/>
<path d="M0 4.66699C0 3.56242 0.895431 2.66699 2 2.66699H9.33333C10.4379 2.66699 11.3333 3.56242 11.3333 4.66699V5.33366H0V4.66699Z" stroke="#262626" stroke-width="1.6" stroke-linejoin="round"/>
<path d="M4 1.66667C4 0.746193 4.74619 0 5.66667 0V0C6.58714 0 7.33333 0.746192 7.33333 1.66667V2.66667H4V1.66667Z" stroke="#262626" stroke-width="1.6" stroke-linejoin="round"/>
<path d="M3.45924 12.64C3.45924 11.5912 3.9003 10.0868 3.9003 9.30664" stroke="#262626" stroke-width="1.6" stroke-linecap="round" stroke-linejoin="round"/>
</g>
</svg>
