<svg width="351" height="76" viewBox="0 0 351 76" fill="none" xmlns="http://www.w3.org/2000/svg">
<foreignObject x="-13.5914" y="-13.5914" width="378.183" height="103.183"><div xmlns="http://www.w3.org/1999/xhtml" style="backdrop-filter:blur(6.8px);clip-path:url(#bgblur_0_1_4304_clip_path);height:100%;width:100%"></div></foreignObject><path data-figma-bg-blur-radius="13.5914" fill-rule="evenodd" clip-rule="evenodd" d="M0 19.2C0 12.4794 0 9.11905 1.30792 6.55211C2.4584 4.29417 4.29417 2.4584 6.55211 1.30792C9.11905 0 12.4794 0 19.2 0L331.8 0C338.521 0 341.881 0 344.448 1.30792C346.706 2.4584 348.542 4.29417 349.692 6.55211C351 9.11905 351 12.4794 351 19.2V56.8C351 63.5206 351 66.8809 349.692 69.4479C348.542 71.7058 346.706 73.5416 344.448 74.6921C341.881 76 338.521 76 331.8 76H19.2C12.4794 76 9.11905 76 6.55211 74.6921C4.29417 73.5416 2.4584 71.7058 1.30792 69.4479C0 66.8809 0 63.5206 0 56.8L0 19.2Z" fill="white"/>
<defs>
<clipPath id="bgblur_0_1_4304_clip_path" transform="translate(13.5914 13.5914)"><path fill-rule="evenodd" clip-rule="evenodd" d="M0 19.2C0 12.4794 0 9.11905 1.30792 6.55211C2.4584 4.29417 4.29417 2.4584 6.55211 1.30792C9.11905 0 12.4794 0 19.2 0L331.8 0C338.521 0 341.881 0 344.448 1.30792C346.706 2.4584 348.542 4.29417 349.692 6.55211C351 9.11905 351 12.4794 351 19.2V56.8C351 63.5206 351 66.8809 349.692 69.4479C348.542 71.7058 346.706 73.5416 344.448 74.6921C341.881 76 338.521 76 331.8 76H19.2C12.4794 76 9.11905 76 6.55211 74.6921C4.29417 73.5416 2.4584 71.7058 1.30792 69.4479C0 66.8809 0 63.5206 0 56.8L0 19.2Z"/>
</clipPath></defs>
</svg>
