<svg width="10" height="8" viewBox="0 0 10 8" fill="none" xmlns="http://www.w3.org/2000/svg">
<path fill-rule="evenodd" clip-rule="evenodd" d="M8.63448 0.247072C8.92139 -0.0625349 9.40454 -0.0839291 9.71823 0.198515C10.0379 0.486733 10.0603 0.980889 9.76782 1.29673L3.7819 7.75582C3.77361 7.76477 3.76261 7.77112 3.754 7.77958C3.75135 7.78204 3.74947 7.78542 3.74677 7.78785C3.74221 7.79195 3.73693 7.79522 3.73231 7.79921C3.61083 7.90997 3.46399 7.97445 3.30976 7.99344C3.30388 7.99435 3.29809 7.99576 3.2922 7.99654C3.2636 7.99939 3.23519 7.99997 3.20645 7.99964C2.96628 8.00702 2.72484 7.91733 2.55145 7.72483L0.217618 5.13272C-0.0951001 4.78541 -0.0676104 4.25018 0.279606 3.93739C0.626965 3.62463 1.16217 3.65305 1.47493 4.00041L3.2891 6.01501L8.63448 0.247072Z" fill="#096DD9"/>
</svg>
