<svg width="12" height="12" viewBox="0 0 12 12" fill="none" xmlns="http://www.w3.org/2000/svg">
<path d="M6.00052 0C6.39022 0.000186133 6.70573 0.316503 6.70573 0.706247V5.29427H11.2948C11.6845 5.29446 12 5.61077 12 6.00052C11.9998 6.3901 11.6844 6.70554 11.2948 6.70573H6.70573V11.2948C6.70554 11.6844 6.3901 11.9998 6.00052 12C5.61077 12 5.29446 11.6845 5.29427 11.2948V6.70573H0.706247C0.316503 6.70573 0.000186201 6.39022 0 6.00052C0 5.61066 0.316388 5.29427 0.706247 5.29427H5.29427V0.706247C5.29427 0.316388 5.61066 0 6.00052 0Z" fill="#262626"/>
</svg>
