<svg width="32" height="32" viewBox="0 0 32 32" fill="none" xmlns="http://www.w3.org/2000/svg">
<rect opacity="0.01" width="32" height="32" fill="black"/>
<path d="M28.1905 9.8285V26.6666C28.1905 28.3498 26.8261 29.7142 25.1429 29.7142H6.85719C5.17404 29.7142 3.80957 28.3498 3.80957 26.6666V5.33326C3.80957 3.65011 5.17404 2.28564 6.85719 2.28564H20.6477L28.1905 9.8285Z" fill="#ED5050"/>
<path d="M20.6475 8.30469V2.28564L28.1903 9.8285H22.1713C21.3297 9.8285 20.6475 9.14627 20.6475 8.30469H20.6475Z" fill="#D43030"/>
<path fill-rule="evenodd" clip-rule="evenodd" d="M19.8094 18.057C19.1842 18.0678 18.5616 18.1393 17.9503 18.2704C17.207 17.5868 16.5837 16.7832 16.1065 15.8932C16.617 14.2399 16.6398 13.1123 16.2589 12.5789C16.0775 12.3399 15.7969 12.1968 15.497 12.1904C15.1221 12.1558 14.7617 12.3434 14.5751 12.6704C14.0417 13.5542 14.8113 15.3065 15.1694 16.0151C14.7637 17.2862 14.2382 18.5159 13.5998 19.6875C10.7503 20.9065 10.6665 21.6456 10.6665 21.9123C10.6764 22.2409 10.871 22.5359 11.1694 22.6742C11.3015 22.7565 11.4557 22.7964 11.6113 22.7885C12.3732 22.7885 13.2113 21.958 14.1332 20.3351C15.2703 19.8544 16.4484 19.477 17.6532 19.2075C18.2713 19.7302 19.0399 20.0425 19.8475 20.0989C20.3503 20.0989 21.3713 20.0989 21.3713 19.0856C21.3789 18.7427 21.1732 18.0875 19.8094 18.057ZM11.6646 21.9427H11.5732C11.8323 21.5534 12.2046 21.2529 12.6398 21.0818C12.4224 21.4715 12.0783 21.7753 11.6646 21.9427ZM15.4284 13.1123C15.389 13.0983 15.3459 13.0983 15.3065 13.1123C15.2085 13.6298 15.2834 14.1653 15.5198 14.6361C15.6765 14.1402 15.6765 13.6081 15.5198 13.1123H15.4284ZM16.8303 18.857C16.1465 19.0164 15.4724 19.2148 14.8113 19.4513V19.3904H14.7503C15.0779 18.7427 15.3751 18.057 15.6417 17.3789V17.318C15.9849 17.8396 16.3806 18.3246 16.8227 18.7656H16.7389L16.8303 18.857ZM18.9789 19.0475C19.2643 19.1668 19.5688 19.2339 19.8779 19.2456H19.8703C20.0625 19.2823 20.2606 19.2745 20.4494 19.2227C20.4494 19.1313 20.3275 18.9865 19.7408 18.9865C19.4853 18.9777 19.2297 18.9981 18.9789 19.0475Z" fill="white"/>
</svg>
