<svg width="6" height="6" viewBox="0 0 6 6" fill="none" xmlns="http://www.w3.org/2000/svg">
<path d="M4.11577 2.25223C4.36251 2.11967 4.56199 2.02058 4.70898 1.95955C4.85598 1.89918 4.97147 1.86638 5.06072 1.86638C5.2077 1.86638 5.33371 1.91559 5.44394 2.02058C5.54894 2.12557 5.60669 2.25223 5.60669 2.40643C5.60669 2.49502 5.58044 2.5882 5.52794 2.68204C5.47544 2.77589 5.4177 2.83691 5.35995 2.86448C4.81923 3.09021 4.21552 3.25557 3.56455 3.35467C3.68528 3.46491 3.82704 3.61977 4.00027 3.8127C4.17352 4.00562 4.26276 4.10472 4.27326 4.12111C4.33626 4.21496 4.42551 4.33111 4.541 4.46891C4.6565 4.60672 4.73524 4.7117 4.77723 4.78848C4.81922 4.86592 4.84547 4.95911 4.84547 5.06999C4.84614 5.20854 4.79132 5.34159 4.69324 5.43945C4.59077 5.54643 4.44756 5.60466 4.29951 5.59956C4.14202 5.59956 3.95828 5.46701 3.75879 5.2078C3.55931 4.95385 3.29682 4.48597 2.98183 3.80745C2.66161 4.41379 2.44637 4.82195 2.34137 5.01487C2.23112 5.2078 2.12614 5.35611 2.02638 5.45585C1.9363 5.55105 1.81097 5.60494 1.6799 5.60482C1.5314 5.60898 1.38885 5.54636 1.29144 5.43419C1.19693 5.3361 1.14261 5.20616 1.13919 5.06999C1.13919 4.9486 1.16018 4.86001 1.20219 4.79965C1.59067 4.24843 1.99489 3.76282 2.41487 3.36057C2.09735 3.30935 1.7821 3.24498 1.46992 3.16765C1.16626 3.08649 0.869583 2.98116 0.582727 2.85266C0.53022 2.82575 0.482973 2.76472 0.435726 2.67089C0.384312 2.59423 0.356898 2.50399 0.35698 2.41169C0.351988 2.26542 0.411494 2.12434 0.519731 2.02584C0.617491 1.92538 0.752294 1.86961 0.892449 1.87162C0.992204 1.87162 1.1182 1.90443 1.27043 1.96545C1.42267 2.03108 1.61166 2.11967 1.8479 2.24632C2.08414 2.36772 2.34663 2.50552 2.64586 2.65448C2.59335 2.37362 2.5461 2.0534 2.50936 1.6951C2.4726 1.33681 2.45687 1.08876 2.45687 0.956204C2.45687 0.790839 2.50412 0.653034 2.60386 0.536885C2.69563 0.419053 2.83777 0.351631 2.98708 0.355109C3.13933 0.355109 3.26532 0.415491 3.36506 0.53164C3.46481 0.653034 3.51206 0.807249 3.51206 1.00018C3.51206 1.0553 3.50155 1.16028 3.49105 1.31516C3.48056 1.47462 3.45431 1.66228 3.42805 1.88277C3.39656 2.10852 3.36506 2.36181 3.33356 2.64923C3.59697 2.52221 3.85775 2.38985 4.11577 2.25223Z" fill="#F24C3D"/>
</svg>
