<svg width="21" height="20" viewBox="0 0 21 20" fill="none" xmlns="http://www.w3.org/2000/svg">
<path fill-rule="evenodd" clip-rule="evenodd" d="M12.8494 0.908564C13.2602 0.908564 13.63 1.15748 13.7847 1.53807L14.6694 3.71403C14.824 4.0945 15.1938 4.34335 15.6045 4.34341L18.0722 4.3438C19.1874 4.3438 20.0914 5.24785 20.0914 6.36305V16.4593C20.0914 17.5745 19.1874 18.4785 18.0722 18.4785H2.92781C1.81261 18.4785 0.908564 17.5745 0.908564 16.4593V6.36305C0.908564 5.24785 1.81261 4.3438 2.92781 4.3438L5.39552 4.34341C5.80623 4.34335 6.17597 4.0945 6.33065 3.71403L7.2153 1.53807C7.36997 1.15748 7.73982 0.908564 8.15063 0.908564L12.8494 0.908564Z" stroke="#262626" stroke-width="1.8" stroke-linecap="round" stroke-linejoin="round"/>
<path fill-rule="evenodd" clip-rule="evenodd" d="M10.4986 14.556C12.4104 14.556 13.9602 13.0062 13.9602 11.0944C13.9602 9.18261 12.4104 7.63282 10.4986 7.63282C8.58684 7.63282 7.03706 9.18261 7.03706 11.0944C7.03706 13.0062 8.58684 14.556 10.4986 14.556Z" stroke="#262626" stroke-width="1.8" stroke-linecap="round" stroke-linejoin="round"/>
</svg>
