<svg width="20" height="18" viewBox="0 0 20 18" fill="none" xmlns="http://www.w3.org/2000/svg">
<path fill-rule="evenodd" clip-rule="evenodd" d="M18.8999 2.6999C18.8999 1.70579 18.094 0.899902 17.0999 0.899902H2.6999C1.70579 0.899902 0.899902 1.70579 0.899902 2.6999V15.2999C0.899902 16.294 1.70579 17.0999 2.6999 17.0999H17.0999C18.094 17.0999 18.8999 16.294 18.8999 15.2999V2.6999Z" stroke="#262626" stroke-width="1.8" stroke-linecap="round" stroke-linejoin="round"/>
<path fill-rule="evenodd" clip-rule="evenodd" d="M6.2998 9.44971C7.54243 9.44971 8.5498 8.44234 8.5498 7.19971C8.5498 5.95708 7.54243 4.94971 6.2998 4.94971C5.05717 4.94971 4.0498 5.95708 4.0498 7.19971C4.0498 8.44234 5.05717 9.44971 6.2998 9.44971Z" stroke="#262626" stroke-width="1.8" stroke-linecap="round" stroke-linejoin="round"/>
<path fill-rule="evenodd" clip-rule="evenodd" d="M12.0444 9.99852C12.4421 9.5069 13.2443 9.519 13.6244 10.0224L17.8998 15.685C18.3502 16.2817 17.888 17.0998 17.1004 17.0998H6.2998L12.0444 9.99852Z" stroke="#262626" stroke-width="1.8" stroke-linecap="round" stroke-linejoin="round"/>
</svg>
