<svg width="32" height="32" viewBox="0 0 32 32" fill="none" xmlns="http://www.w3.org/2000/svg">
<rect opacity="0.01" width="32" height="32" fill="black"/>
<path d="M28.1905 9.8285V26.6666C28.1905 28.3497 26.8261 29.7142 25.1429 29.7142H6.85719C5.17404 29.7142 3.80957 28.3497 3.80957 26.6666V5.33326C3.80957 3.65011 5.17404 2.28564 6.85719 2.28564H20.6477L28.1905 9.8285Z" fill="#FCA25F"/>
<path d="M23.3765 21.0029H8.97607L12.1763 16.7354L14.2095 19.4463L18.1763 14.4424L23.3765 21.0029ZM13.7036 11.8428C14.5871 11.8428 15.303 12.5589 15.3032 13.4424C15.3032 14.326 14.5872 15.0429 13.7036 15.043C12.82 15.043 12.103 14.326 12.103 13.4424C12.1032 12.5589 12.8201 11.8428 13.7036 11.8428Z" fill="white"/>
<path d="M20.6475 8.30469V2.28564L28.1903 9.8285H22.1713C21.3297 9.8285 20.6475 9.14627 20.6475 8.30469H20.6475Z" fill="#F28C41"/>
</svg>
