<svg width="14" height="14" viewBox="0 0 14 14" fill="none" xmlns="http://www.w3.org/2000/svg">
<path fill-rule="evenodd" clip-rule="evenodd" d="M12.5191 0.254007C12.8578 -0.0846615 13.4072 -0.0846764 13.7459 0.254007C14.069 0.577314 14.0834 1.09229 13.7896 1.43295L13.7459 1.48072L8.22614 6.99942L13.7459 12.5191C14.0843 12.8578 14.0845 13.4072 13.7459 13.7458C13.4226 14.0691 12.9076 14.0833 12.5669 13.7895L12.5191 13.7458L6.99943 8.22613L1.48073 13.7458C1.1421 14.0844 0.592716 14.0843 0.254018 13.7458C-0.0692701 13.4226 -0.0835683 12.9076 0.210316 12.5669L0.254018 12.5191L5.77271 6.99942L0.254018 1.48072C-0.0846727 1.14203 -0.0846727 0.592697 0.254018 0.254007C0.577314 -0.0692888 1.09224 -0.0836006 1.43297 0.210304L1.48073 0.254007L6.99943 5.7727L12.5191 0.254007Z" fill="#171A1D"/>
</svg>
