<svg width="32" height="32" viewBox="0 0 32 32" fill="none" xmlns="http://www.w3.org/2000/svg">
<rect opacity="0.01" width="32" height="32" fill="black"/>
<path d="M28.1905 9.8285V26.6666C28.1905 28.3498 26.8261 29.7142 25.1429 29.7142H6.85719C5.17404 29.7142 3.80957 28.3498 3.80957 26.6666V5.33326C3.80957 3.65011 5.17404 2.28564 6.85719 2.28564H20.6477L28.1905 9.8285Z" fill="#ED5050"/>
<path d="M20.6477 8.30469V2.28564L28.1906 9.8285H22.1715C21.3299 9.8285 20.6477 9.14627 20.6477 8.30469H20.6477Z" fill="#D43030"/>
<path fill-rule="evenodd" clip-rule="evenodd" d="M19.8096 18.0573C19.1845 18.0681 18.5619 18.1395 17.9506 18.2706C17.2072 17.587 16.584 16.7835 16.1067 15.8935C16.6172 14.2401 16.6401 13.1125 16.2591 12.5792C16.0778 12.3401 15.7972 12.197 15.4972 12.1906C15.1224 12.156 14.7619 12.3437 14.5753 12.6706C14.042 13.5544 14.8115 15.3068 15.1696 16.0154C14.764 17.2865 14.2385 18.5161 13.6001 19.6877C10.7506 20.9068 10.6667 21.6458 10.6667 21.9125C10.6766 22.2412 10.8713 22.5361 11.1696 22.6744C11.3018 22.7568 11.456 22.7967 11.6115 22.7887C12.3734 22.7887 13.2115 21.9582 14.1334 20.3354C15.2705 19.8546 16.4486 19.4772 17.6534 19.2077C18.2715 19.7305 19.0401 20.0427 19.8477 20.0992C20.3506 20.0992 21.3715 20.0992 21.3715 19.0858C21.3791 18.743 21.1734 18.0877 19.8096 18.0573ZM11.6648 21.943H11.5734C11.8325 21.5536 12.2048 21.2531 12.6401 21.082C12.4226 21.4718 12.0785 21.7755 11.6648 21.943ZM15.4287 13.1125C15.3892 13.0986 15.3462 13.0986 15.3067 13.1125C15.2087 13.6301 15.2837 14.1656 15.5201 14.6363C15.6767 14.1405 15.6767 13.6084 15.5201 13.1125H15.4287ZM16.8306 18.8573C16.1467 19.0166 15.4726 19.215 14.8115 19.4516V19.3906H14.7506C15.0782 18.743 15.3753 18.0573 15.642 17.3792V17.3182C15.9852 17.8398 16.3809 18.3249 16.8229 18.7658H16.7391L16.8306 18.8573ZM18.9791 19.0477C19.2645 19.1671 19.569 19.2342 19.8782 19.2458H19.8706C20.0628 19.2826 20.2609 19.2748 20.4496 19.223C20.4496 19.1316 20.3277 18.9868 19.741 18.9868C19.4856 18.9779 19.2299 18.9984 18.9791 19.0477Z" fill="white"/>
</svg>
