<svg width="19" height="18" viewBox="0 0 19 18" fill="none" xmlns="http://www.w3.org/2000/svg">
<path fill-rule="evenodd" clip-rule="evenodd" d="M11.827 0C12.2339 0 12.6002 0.246548 12.7534 0.623508L13.6296 2.77872C13.7828 3.15556 14.149 3.40204 14.5558 3.40211L17 3.40249C18.1046 3.40249 19 4.29792 19 5.40249V15.4025C19 16.5071 18.1046 17.4025 17 17.4025H2C0.89543 17.4025 0 16.5071 0 15.4025V5.40249C0 4.29792 0.89543 3.40249 2 3.40249L4.44418 3.40211C4.85098 3.40204 5.21719 3.15556 5.3704 2.77873L6.24661 0.623508C6.3998 0.246548 6.76613 0 7.17303 0L11.827 0Z" stroke="white" stroke-width="1.8" stroke-linecap="round" stroke-linejoin="round"/>
<path fill-rule="evenodd" clip-rule="evenodd" d="M9.49852 13.5173C11.3921 13.5173 12.9271 11.9823 12.9271 10.0887C12.9271 8.19517 11.3921 6.66016 9.49852 6.66016C7.60496 6.66016 6.06995 8.19517 6.06995 10.0887C6.06995 11.9823 7.60496 13.5173 9.49852 13.5173Z" stroke="white" stroke-width="1.8" stroke-linecap="round" stroke-linejoin="round"/>
</svg>
