<svg width="24" height="24" viewBox="0 0 24 24" fill="none" xmlns="http://www.w3.org/2000/svg">
    <path fill-rule="evenodd" clip-rule="evenodd" d="M11.6883 18.9014L8.14993 20.7617C7.16815 21.2778 5.95384 20.9004 5.43769 19.9186C5.23216 19.5277 5.16123 19.0799 5.2359 18.6445L5.91167 14.7044C5.94892 14.4873 5.87692 14.2657 5.71914 14.1119L2.8565 11.3215C2.06223 10.5473 2.04598 9.27576 2.8202 8.48148C3.1285 8.1652 3.53247 7.95937 3.96956 7.89585L7.92563 7.321C8.14368 7.28932 8.33218 7.15237 8.42969 6.95478L10.1989 3.36998C10.6898 2.37533 11.8941 1.96695 12.8887 2.45784C13.2848 2.65331 13.6054 2.9739 13.8008 3.36998L15.57 6.95478C15.6676 7.15237 15.8561 7.28932 16.0741 7.321L20.0302 7.89585C21.1278 8.05535 21.8884 9.07448 21.7289 10.1721C21.6654 10.6092 21.4595 11.0132 21.1432 11.3215L18.2806 14.1119C18.1228 14.2657 18.0508 14.4873 18.0881 14.7044L18.7638 18.6445C18.9513 19.7377 18.2171 20.776 17.1239 20.9635C16.6886 21.0382 16.2408 20.9672 15.8498 20.7617L12.3114 18.9014C12.1554 18.8194 11.9751 18.803 11.8093 18.8522L11.6883 18.9014Z" fill="#FAAD14" stroke="#FAAD14" stroke-width="0.7" stroke-linecap="round" stroke-linejoin="round"/>
</svg>
