<svg width="20" height="20" viewBox="0 0 20 20" fill="none" xmlns="http://www.w3.org/2000/svg">
<rect opacity="0.01" width="20" height="20" transform="matrix(-1 0 0 1 20 0)" fill="#D8D8D8"/>
<path fill-rule="evenodd" clip-rule="evenodd" d="M9.74029 15.7512L6.79161 17.3014C5.97346 17.7315 4.96153 17.417 4.53141 16.5988C4.36013 16.273 4.30103 15.8999 4.36325 15.5371L4.9264 12.2537C4.95743 12.0727 4.89744 11.8881 4.76595 11.7599L2.38042 9.43459C1.71852 8.7894 1.70498 7.7298 2.35017 7.0679C2.60709 6.80433 2.94373 6.63281 3.30797 6.57988L6.60469 6.10084C6.7864 6.07443 6.94348 5.96031 7.02474 5.79565L8.49908 2.80832C8.90816 1.97944 9.91171 1.63913 10.7406 2.0482C11.0706 2.21109 11.3378 2.47825 11.5007 2.80832L12.975 5.79565C13.0563 5.96031 13.2134 6.07443 13.3951 6.10084L16.6918 6.57988C17.6065 6.71279 18.2403 7.56207 18.1074 8.47679C18.0545 8.84103 17.8829 9.17767 17.6194 9.43459L15.2338 11.7599C15.1023 11.8881 15.0423 12.0727 15.0734 12.2537L15.6365 15.5371C15.7928 16.4481 15.1809 17.3133 14.2699 17.4696C13.9071 17.5318 13.534 17.4727 13.2082 17.3014L10.2595 15.7512C10.1295 15.6828 9.97921 15.6692 9.84109 15.7102L9.74029 15.7512Z" stroke="white" stroke-width="1.4" stroke-linecap="round" stroke-linejoin="round"/>
</svg>
