<svg width="24" height="24" viewBox="0 0 24 24" fill="none" xmlns="http://www.w3.org/2000/svg">
<path fill-rule="evenodd" clip-rule="evenodd" d="M22.2 3.6C22.2 2.60589 21.3941 1.8 20.4 1.8H3.6C2.60589 1.8 1.8 2.60589 1.8 3.6V18.3C1.8 19.2941 2.60589 20.1 3.6 20.1H20.4C21.3941 20.1 22.2 19.2941 22.2 18.3V3.6Z" stroke="#262626" stroke-width="1.8" stroke-linecap="round" stroke-linejoin="round"/>
<path fill-rule="evenodd" clip-rule="evenodd" d="M7.8 10.2C9.04264 10.2 10.05 9.19264 10.05 7.95C10.05 6.70736 9.04264 5.7 7.8 5.7C6.55736 5.7 5.55 6.70736 5.55 7.95C5.55 9.19264 6.55736 10.2 7.8 10.2Z" stroke="#262626" stroke-width="1.8" stroke-linecap="round" stroke-linejoin="round"/>
<path fill-rule="evenodd" clip-rule="evenodd" d="M14.5451 10.7487C14.9428 10.2571 15.745 10.2692 16.1251 10.7725L21.1128 17.3773C21.5633 17.974 21.1011 18.7921 20.3134 18.7921H7.71338L14.5451 10.7487Z" stroke="#262626" stroke-width="1.8" stroke-linecap="round" stroke-linejoin="round"/>
</svg>
