<svg width="24" height="24" viewBox="0 0 24 24" fill="none" xmlns="http://www.w3.org/2000/svg">
<path d="M3.91699 22L3.9167 22.8H3.91699V22ZM2.94531 20.418L3.659 20.7794L3.65908 20.7793L2.94531 20.418ZM4.10254 18.1318L4.8163 18.4931L5.04522 18.0409L4.73409 17.6408L4.10254 18.1318ZM12 2V2.8C17.081 2.8 21.2 6.91898 21.2 12H22H22.8C22.8 6.03532 17.9647 1.2 12 1.2V2ZM22 12H21.2C21.2 17.081 17.081 21.2 12 21.2V22V22.8C17.9647 22.8 22.8 17.9647 22.8 12H22ZM12 22V21.2H3.91699V22V22.8H12V22ZM3.91699 22L3.91728 21.2C3.7015 21.1999 3.56147 20.972 3.659 20.7794L2.94531 20.418L2.23163 20.0565C1.59515 21.3132 2.50819 22.7995 3.9167 22.8L3.91699 22ZM2.94531 20.418L3.65908 20.7793L4.8163 18.4931L4.10254 18.1318L3.38877 17.7705L2.23155 20.0567L2.94531 20.418ZM4.10254 18.1318L4.73409 17.6408C3.5223 16.0823 2.8 14.1268 2.8 12H2H1.2C1.2 14.4959 2.04918 16.7943 3.47099 18.6229L4.10254 18.1318ZM2 12H2.8C2.8 6.91898 6.91898 2.8 12 2.8V2V1.2C6.03532 1.2 1.2 6.03532 1.2 12H2Z" fill="#8C8C8C"/>
<circle cx="9.31317" cy="11.8096" r="1.5" fill="#8C8C8C"/>
<circle cx="14.6868" cy="11.8096" r="1.5" fill="#8C8C8C"/>
</svg>
