<svg width="10" height="10" viewBox="0 0 10 10" fill="none" xmlns="http://www.w3.org/2000/svg">
<path d="M4.95801 0C5.28007 0 5.54182 0.260991 5.54199 0.583008V4.375H9.33301C9.65507 4.375 9.91682 4.63599 9.91699 4.95801C9.91699 5.28017 9.65517 5.54199 9.33301 5.54199H5.54199V9.33301C5.54199 9.65517 5.28017 9.91699 4.95801 9.91699C4.63599 9.91682 4.375 9.65507 4.375 9.33301V5.54199H0.583008C0.260992 5.54182 0 5.28007 0 4.95801C0.000175784 4.6361 0.2611 4.37518 0.583008 4.375H4.375V0.583008C4.37518 0.2611 4.6361 0.00017572 4.95801 0Z" fill="#262626"/>
</svg>
