<svg width="9" height="9" viewBox="0 0 9 9" fill="none" xmlns="http://www.w3.org/2000/svg">
<path fill-rule="evenodd" clip-rule="evenodd" d="M7.51179 0.152383C7.71501 -0.0507726 8.04492 -0.0508158 8.24812 0.152383C8.44191 0.346377 8.45077 0.656017 8.27449 0.86039L8.24812 0.888711L4.93659 4.20023L8.24812 7.51176C8.45108 7.715 8.45125 8.04495 8.24812 8.24809C8.05418 8.44203 7.74455 8.45068 7.54011 8.27445L7.51179 8.24809L4.20027 4.93656L0.888743 8.24809C0.685583 8.45118 0.355629 8.45109 0.152415 8.24809C-0.0415677 8.0541 -0.0503001 7.74452 0.126048 7.54008L0.152415 7.51176L3.46394 4.20023L0.152415 0.888711C-0.050805 0.685491 -0.050805 0.355603 0.152415 0.152383C0.346398 -0.0416001 0.655981 -0.0503325 0.860423 0.126015L0.888743 0.152383L4.20027 3.46391L7.51179 0.152383Z" fill="#096DD9"/>
</svg>
