<svg width="20" height="20" viewBox="0 0 20 20" fill="none" xmlns="http://www.w3.org/2000/svg">
<path d="M3.69995 5.8002H5.09995H16.3" stroke="#D9363E" stroke-width="1.6" stroke-linecap="round" stroke-linejoin="round"/>
<path d="M15.6999 5.8C15.6999 5.35817 15.3417 5 14.8999 5C14.458 5 14.0999 5.35817 14.0999 5.8H14.8999H15.6999ZM5.89985 5.8C5.89985 5.35817 5.54168 5 5.09985 5C4.65803 5 4.29985 5.35817 4.29985 5.8H5.09985H5.89985ZM6.39985 5.8C6.39985 6.24183 6.75803 6.6 7.19985 6.6C7.64168 6.6 7.99985 6.24183 7.99985 5.8H7.19985H6.39985ZM11.9999 5.8C11.9999 6.24183 12.358 6.6 12.7999 6.6C13.2417 6.6 13.5999 6.24183 13.5999 5.8H12.7999H11.9999ZM14.8999 5.8H14.0999V15.6H14.8999H15.6999V5.8H14.8999ZM14.8999 15.6H14.0999C14.0999 15.9314 13.8312 16.2 13.4999 16.2V17V17.8C14.7149 17.8 15.6999 16.815 15.6999 15.6H14.8999ZM13.4999 17V16.2H6.49985V17V17.8H13.4999V17ZM6.49985 17V16.2C6.16848 16.2 5.89985 15.9314 5.89985 15.6H5.09985H4.29985C4.29985 16.815 5.28483 17.8 6.49985 17.8V17ZM5.09985 15.6H5.89985V5.8H5.09985H4.29985V15.6H5.09985ZM7.19985 5.8H7.99985V4.4H7.19985H6.39985V5.8H7.19985ZM7.19985 4.4H7.99985C7.99985 4.06863 8.26848 3.8 8.59985 3.8V3V2.2C7.38483 2.2 6.39985 3.18497 6.39985 4.4H7.19985ZM8.59985 3V3.8H11.3999V3V2.2H8.59985V3ZM11.3999 3V3.8C11.7312 3.8 11.9999 4.06863 11.9999 4.4H12.7999H13.5999C13.5999 3.18497 12.6149 2.2 11.3999 2.2V3ZM12.7999 4.4H11.9999V5.8H12.7999H13.5999V4.4H12.7999Z" fill="#D9363E"/>
<path d="M8.6 9.2998V13.4998" stroke="#D9363E" stroke-width="1.6" stroke-linecap="round" stroke-linejoin="round"/>
<path d="M11.4 9.2998V13.4998" stroke="#D9363E" stroke-width="1.6" stroke-linecap="round" stroke-linejoin="round"/>
</svg>
