<svg width="20" height="20" viewBox="0 0 20 20" fill="none" xmlns="http://www.w3.org/2000/svg">
<g opacity="0.24">
<rect opacity="0.01" width="20" height="20" fill="#D8D8D8"/>
<path d="M14.167 15C14.6271 15.0002 15 15.3729 15 15.833C15 16.2931 14.6271 16.6658 14.167 16.666H5.83301C5.37292 16.6658 5 16.2931 5 15.833C5 15.3729 5.37292 15.0002 5.83301 15H14.167ZM14.167 9.16602C14.6271 9.16619 15 9.53987 15 10C14.9998 10.46 14.627 10.8328 14.167 10.833H5.83301C5.37303 10.8328 5.00018 10.46 5 10C5 9.53987 5.37292 9.16619 5.83301 9.16602H14.167ZM14.167 3.33301C14.627 3.33318 14.9998 3.70604 15 4.16602C15 4.62614 14.6271 4.99982 14.167 5H5.83301C5.37292 4.99982 5 4.62614 5 4.16602C5.00018 3.70604 5.37303 3.33318 5.83301 3.33301H14.167Z" fill="#171A1D"/>
</g>
</svg>
