<svg width="16" height="16" viewBox="0 0 16 16" fill="none" xmlns="http://www.w3.org/2000/svg">
  <path d="M4.66667 5.33333V11.3333C4.66667 11.687 4.80714 12.0261 5.05719 12.2761C5.30724 12.5262 5.64638 12.6667 6 12.6667H10C10.3536 12.6667 10.6928 12.5262 10.9428 12.2761C11.1929 12.0261 11.3333 11.687 11.3333 11.3333V5.33333" stroke="#A2A3A5" stroke-width="1.33333" stroke-linecap="round" stroke-linejoin="round"/>
  <path d="M3.33334 4H12.6667" stroke="#A2A3A5" stroke-width="1.33333" stroke-linecap="round" stroke-linejoin="round"/>
  <path d="M6.66666 7.33333V10.6667" stroke="#A2A3A5" stroke-width="1.33333" stroke-linecap="round" stroke-linejoin="round"/>
  <path d="M9.33334 7.33333V10.6667" stroke="#A2A3A5" stroke-width="1.33333" stroke-linecap="round" stroke-linejoin="round"/>
  <path d="M6 4V3.33333C6 2.97971 6.14048 2.64057 6.39053 2.39052C6.64058 2.14048 6.97972 2 7.33334 2H8.66666C9.02028 2 9.35942 2.14048 9.60947 2.39052C9.85952 2.64057 10 2.97971 10 3.33333V4" stroke="#A2A3A5" stroke-width="1.33333" stroke-linecap="round" stroke-linejoin="round"/>
</svg>
