<svg width="12" height="11" viewBox="0 0 12 11" fill="none" xmlns="http://www.w3.org/2000/svg">
<path fill-rule="evenodd" clip-rule="evenodd" d="M4.71711 0.627497L3.65811 2.78909C3.60725 2.8929 3.50842 2.9649 3.39403 2.98149L0.959419 3.33452C0.347263 3.42329 -0.0770284 3.9915 0.0117381 4.60365C0.0470205 4.84697 0.161385 5.07192 0.33719 5.24379L2.10548 6.97255C2.18809 7.05331 2.22553 7.16964 2.20552 7.28343L1.7939 9.62442C1.68678 10.2336 2.0938 10.8143 2.70302 10.9215C2.94937 10.9648 3.20313 10.9244 3.42386 10.8067L5.55175 9.67231C5.65465 9.61745 5.77812 9.61744 5.88103 9.67229L8.01318 10.8087C8.55904 11.0997 9.23741 10.893 9.52835 10.3471C9.64576 10.1269 9.68622 9.87368 9.6433 9.62778L9.23405 7.283C9.21423 7.16945 9.25159 7.05342 9.33394 6.97276L11.1013 5.24189C11.5432 4.80909 11.5506 4.09998 11.1178 3.65806C10.9463 3.48286 10.7219 3.36881 10.4793 3.33343L8.06531 2.98144C7.95165 2.96487 7.85336 2.89358 7.8023 2.7907L6.72613 0.622336C6.45114 0.0682638 5.77905 -0.157978 5.22498 0.117011C5.00411 0.226629 4.82559 0.406069 4.71711 0.627497Z" fill="#FE5815"/>
</svg>
