<svg width="71" height="12" viewBox="0 0 71 12" fill="none" xmlns="http://www.w3.org/2000/svg">
<g clip-path="url(#clip0_60_6597)">
<rect opacity="0.35" x="45.3423" y="0.532217" width="22.2301" height="10.9386" rx="2.29358" stroke="black" stroke-width="1.05858"/>
<path opacity="0.4" d="M69.1602 3.88428V8.11858C70.012 7.75996 70.566 6.9257 70.566 6.00143C70.566 5.07715 70.012 4.2429 69.1602 3.88428Z" fill="black"/>
<rect x="46.9302" y="2.12012" width="19.0543" height="7.76288" rx="1.41143" fill="black"/>
<path fill-rule="evenodd" clip-rule="evenodd" d="M29.0563 8.91997C30.4119 7.77439 32.3979 7.77437 33.7535 8.91997C33.8218 8.9816 33.861 9.06932 33.8629 9.16118C33.8647 9.25283 33.8287 9.34106 33.7633 9.40532L31.6403 11.5459C31.578 11.6088 31.4934 11.6446 31.4049 11.6446C31.3164 11.6446 31.2318 11.6088 31.1696 11.5459L29.0465 9.40532C28.981 9.34101 28.9451 9.2529 28.9469 9.16118C28.9488 9.06932 28.988 8.98155 29.0563 8.91997ZM26.2233 6.0645C29.144 3.34994 33.6677 3.35006 36.5885 6.0645C36.6544 6.12816 36.6921 6.21606 36.693 6.30767C36.6939 6.39924 36.658 6.48782 36.5934 6.55278L35.3659 7.79107C35.2394 7.91742 35.0356 7.92004 34.9059 7.79693C33.9468 6.92917 32.6988 6.4492 31.4049 6.44927C30.112 6.4498 28.8653 6.9299 27.9069 7.79693C27.7771 7.92008 27.5724 7.91757 27.4459 7.79107L26.2194 6.55278C26.1546 6.4879 26.1179 6.39929 26.1188 6.30767C26.1196 6.21605 26.1573 6.12816 26.2233 6.0645ZM23.3912 3.21685C27.8709 -1.07232 34.9379 -1.07225 39.4176 3.21685C39.4825 3.28058 39.5196 3.36816 39.5201 3.45904C39.5206 3.54982 39.4846 3.63681 39.4205 3.70122L38.192 4.94048C38.0654 5.06743 37.8605 5.06852 37.7321 4.94341C36.0253 3.32215 33.7599 2.41813 31.4049 2.41802C29.0498 2.41801 26.7847 3.32228 25.0778 4.94341C24.9493 5.06875 24.7433 5.06772 24.6168 4.94048L23.3883 3.70122C23.3243 3.63678 23.2882 3.54979 23.2887 3.45904C23.2893 3.36816 23.3263 3.28053 23.3912 3.21685Z" fill="black"/>
<path d="M2.11719 7.41333C2.70181 7.41335 3.17578 7.8873 3.17578 8.47192V10.5881C3.17578 11.1728 2.70181 11.6467 2.11719 11.6467H1.05859C0.473959 11.6467 0 11.1728 0 10.5881V8.47192C0 7.88729 0.473959 7.41333 1.05859 7.41333H2.11719ZM7.05762 5.29614C7.64205 5.29639 8.11621 5.77025 8.11621 6.35474V10.5881C8.11621 11.1726 7.64205 11.6465 7.05762 11.6467H5.99902C5.41439 11.6467 4.94043 11.1728 4.94043 10.5881V6.35474C4.94043 5.7701 5.41439 5.29614 5.99902 5.29614H7.05762ZM11.9971 2.82544C12.5816 2.82544 13.0555 3.29952 13.0557 3.88403V10.5881C13.0557 11.1728 12.5817 11.6467 11.9971 11.6467H10.9385C10.3539 11.6467 9.87988 11.1727 9.87988 10.5881V3.88403C9.88002 3.29956 10.354 2.82551 10.9385 2.82544H11.9971ZM16.9375 0.355713C17.522 0.355875 17.9961 0.829772 17.9961 1.41431V10.5881C17.9961 11.1727 17.522 11.6466 16.9375 11.6467H15.8789C15.2943 11.6467 14.8203 11.1728 14.8203 10.5881V1.41431C14.8203 0.829672 15.2943 0.355713 15.8789 0.355713H16.9375Z" fill="black"/>
</g>
<defs>
<clipPath id="clip0_60_6597">
<rect width="70.566" height="12" fill="white"/>
</clipPath>
</defs>
</svg>
