<svg width="23" height="25" viewBox="0 0 23 25" fill="none" xmlns="http://www.w3.org/2000/svg">
<path opacity="0.7" d="M20.0931 1.9834C21.6786 2.07684 22.9163 3.38934 22.9164 4.97754V19.4873C22.9162 21.0755 21.6786 22.388 20.0931 22.4814L17.4359 22.6377C17.9953 21.9513 18.3334 21.0749 18.3334 20.1143V4.0625C18.3334 3.23761 18.0836 2.47422 17.6586 1.83984L20.0931 1.9834Z" fill="white"/>
<path d="M15.1514 0.00560943C16.8764 -0.0989497 18.3329 1.27157 18.333 2.99975V21.1912C18.333 22.9359 16.8502 24.313 15.1104 24.1833L3.70215 23.3308C1.61447 23.1749 0.000102335 21.436 0 19.3425V4.68823C0.000213931 2.57332 1.64676 0.824092 3.75781 0.696039L10.542 0.284906V7.78491C10.5422 7.98896 10.7416 8.13283 10.9355 8.06909L12.0625 7.69897C12.2654 7.63228 12.4846 7.63228 12.6875 7.69897L13.8145 8.06909C14.0084 8.13283 14.2078 7.98896 14.208 7.78491V0.0622501L15.1514 0.00560943Z" fill="url(#paint0_linear_60_7652)"/>
<defs>
<linearGradient id="paint0_linear_60_7652" x1="16.7293" y1="24.9846" x2="16.7293" y2="2.99527" gradientUnits="userSpaceOnUse">
<stop stop-color="white" stop-opacity="0.8"/>
<stop offset="1" stop-color="white"/>
</linearGradient>
</defs>
</svg>
