<svg width="21" height="21" viewBox="0 0 21 21" fill="none" xmlns="http://www.w3.org/2000/svg">
<path d="M5.5 4.33333C5.5 2.49238 6.99238 1 8.83333 1H12.1667C14.0076 1 15.5 2.49238 15.5 4.33333V7H5.5V4.33333Z" stroke="#AEBBCD" stroke-width="2" stroke-linecap="round" stroke-linejoin="round"/>
<path d="M17.25 5C19.3211 5 21 6.67893 21 8.75V17.25C21 19.3211 19.3211 21 17.25 21H3.75C1.67893 21 0 19.3211 0 17.25V8.75C0 6.67893 1.67893 5 3.75 5H17.25ZM7.5 8.1709C6.94772 8.1709 6.5 8.61861 6.5 9.1709C6.50006 9.72313 6.94775 10.1709 7.5 10.1709H13.5C14.0522 10.1709 14.4999 9.72313 14.5 9.1709C14.5 8.61861 14.0523 8.1709 13.5 8.1709H7.5Z" fill="#AEBBCD"/>
</svg>
