<svg width="16" height="16" viewBox="0 0 16 16" fill="none" xmlns="http://www.w3.org/2000/svg">
<rect opacity="0.01" width="16" height="16" fill="#D8D8D8"/>
<path d="M6.66699 1C9.79646 1.00018 12.333 3.53749 12.333 6.66699C12.3329 8.16134 11.7528 9.51891 10.8076 10.5312L13.7881 13.5117C14.0484 13.7721 14.0484 14.1947 13.7881 14.4551C13.5277 14.7153 13.105 14.7154 12.8447 14.4551L9.78613 11.3965C8.89142 11.9877 7.81975 12.3329 6.66699 12.333C3.53749 12.333 1.00018 9.79646 1 6.66699C1 3.53738 3.53738 1 6.66699 1ZM6.66699 2.33301C4.27376 2.33301 2.33301 4.27376 2.33301 6.66699C2.33318 9.06008 4.27387 11 6.66699 11C9.05997 10.9998 10.9998 9.05997 11 6.66699C11 4.27387 9.06008 2.33318 6.66699 2.33301Z" fill="#A2A3A5"/>
</svg>
