<svg width="24" height="24" viewBox="0 0 24 24" fill="none" xmlns="http://www.w3.org/2000/svg">
<path d="M3.79287 7.20513C2.6686 7.99873 2 9.28909 2 10.6652L2 18.353C2 20.6921 3.89621 22.5883 6.23529 22.5883H17.7647C20.1038 22.5883 22 20.6921 22 18.353V10.6652C22 9.28909 21.3314 7.99873 20.2071 7.20513L14.4424 3.13593C12.9782 2.10233 11.0218 2.10234 9.55758 3.13593L3.79287 7.20513Z" fill="#AEBBCD"/>
<path d="M9.5 16C8.94772 16 8.5 16.4477 8.5 17C8.5 17.5523 8.94772 18 9.5 18H14.5C15.0523 18 15.5 17.5523 15.5 17C15.5 16.4477 15.0523 16 14.5 16H9.5Z" fill="white"/>
</svg>
