<svg width="21" height="21" viewBox="0 0 21 21" fill="none" xmlns="http://www.w3.org/2000/svg">
<path d="M10.5 0C11.1878 0 11.8599 0.0671225 12.5107 0.193359C11.8864 0.504467 11.9147 1.20698 12.1914 2.74512C12.3385 3.56302 12.713 4.04449 13.332 4.43164C13.3893 4.46747 13.4486 4.50299 13.5439 4.55957C13.8334 4.73298 13.8231 4.71432 13.7598 5.11914C13.7004 5.49862 13.7174 5.48953 13.083 5.53418C12.6302 5.56605 12.4279 5.58913 12.1426 5.66016C11.7135 5.76702 11.3307 5.95516 10.9883 6.25293C10.238 6.90557 10.1836 7.55676 10.373 9.06738C10.3821 9.13928 10.3819 9.13942 10.3906 9.20996C10.5138 10.2155 10.4489 10.5429 10.085 10.7461C9.95391 10.8191 9.82644 10.8472 9.68066 10.8398C9.33654 10.8223 8.94107 10.6349 8.21484 10.167C6.64232 9.15389 6.17489 8.95353 5.29395 9.43359C4.43217 9.90327 4.20276 10.6081 4.07422 12.0352C4.06799 12.1048 4.06759 12.1051 4.06152 12.1738C3.98952 12.9894 3.91586 13.2982 3.80273 13.4014C3.50182 13.6758 2.85975 13.6758 1.79785 13.25C1.38777 13.0856 0.922257 13.2852 0.757812 13.6953C0.593529 14.1053 0.792158 14.5709 1.20215 14.7354C2.77204 15.3649 4.02448 15.3648 4.88086 14.584C5.42283 14.0897 5.54322 13.5838 5.65527 12.3145C5.66131 12.2461 5.661 12.2457 5.66699 12.1787C5.74737 11.2863 5.85785 10.9488 6.05957 10.8389C6.1412 10.7944 6.41966 10.9132 7.34863 11.5117C8.30898 12.1304 8.8779 12.4017 9.59863 12.4385C10.0402 12.461 10.4669 12.3649 10.8652 12.1426C11.9976 11.5104 12.1756 10.6161 11.9795 9.01562C11.9703 8.94137 11.9701 8.94102 11.9609 8.86816C11.8413 7.91427 11.8662 7.60967 12.0381 7.45996C12.1796 7.33688 12.3347 7.26137 12.5293 7.21289C12.6942 7.17185 12.8355 7.15521 13.1953 7.12988C14.4853 7.03902 15.1379 6.66452 15.3408 5.36621C15.514 4.25762 15.1754 3.67222 14.3662 3.1875C14.2646 3.12715 14.2221 3.10111 14.1807 3.0752C13.9176 2.91068 13.8262 2.79325 13.7666 2.46191L13.7305 2.25195C13.6637 1.84912 13.6309 1.54291 13.6309 1.34375L13.6299 1.3291L13.6787 1.25488C13.7779 1.07577 13.809 0.858811 13.748 0.646484C13.7324 0.592197 13.7109 0.541197 13.6855 0.493164C17.927 1.84217 21 5.81169 21 10.5C21 11.9494 20.7059 13.33 20.1748 14.5859C20.1372 14.5116 20.0877 14.4418 20.0254 14.3799C17.7332 12.1014 15.8026 11.2485 14.2109 12.083C13.5295 12.4403 13.0732 12.8686 12.8193 13.3877C12.5932 13.8503 12.5602 14.2043 12.5869 14.8555C12.5989 15.1466 12.5937 15.243 12.5742 15.2959C12.5312 15.4119 12.4802 15.4775 12.3203 15.625C12.2535 15.6861 12.2068 15.7291 12.1729 15.7607C12.106 15.823 12.0489 15.8791 11.9922 15.9385C11.6596 16.2868 11.4166 16.6918 11.2363 17.2578C10.8699 18.4085 11.3148 19.5844 12.4385 20.7344C12.4634 20.7598 12.4903 20.7823 12.5176 20.8037C11.8645 20.9309 11.1903 21 10.5 21C4.70101 21 1.13389e-05 16.299 0 10.5C0 4.70101 4.70101 0 10.5 0ZM14.9541 13.5C15.7283 13.0943 17.0501 13.6783 18.8975 15.5146C19.0892 15.7052 19.3531 15.777 19.6006 15.7334C18.3153 17.9636 16.2363 19.6764 13.7471 20.4854C13.8681 20.1977 13.8146 19.8535 13.583 19.6162C12.8326 18.8482 12.6024 18.2403 12.7607 17.7432C12.8664 17.4114 12.983 17.2182 13.1494 17.0439C13.1821 17.0097 13.2178 16.9743 13.2637 16.9316C13.2907 16.9065 13.3296 16.871 13.4053 16.8018C13.7341 16.4983 13.9274 16.2477 14.0742 15.8516C14.1945 15.5267 14.2065 15.3011 14.1855 14.79C14.1692 14.3917 14.1829 14.2421 14.2568 14.0908C14.349 13.9024 14.5557 13.7089 14.9541 13.5Z" fill="#AEBBCD"/>
</svg>
