<svg width="18" height="18" viewBox="0 0 18 18" fill="none" xmlns="http://www.w3.org/2000/svg">
<path fill-rule="evenodd" clip-rule="evenodd" d="M8.71232 15.3706L5.44609 17.0877C4.53983 17.5642 3.41893 17.2157 2.94248 16.3095C2.75276 15.9486 2.68729 15.5352 2.75621 15.1334L3.38001 11.4964C3.41439 11.2959 3.34793 11.0914 3.20228 10.9494L0.559849 8.3737C-0.173327 7.65903 -0.18833 6.48531 0.526341 5.75214C0.810926 5.46018 1.18382 5.27019 1.58729 5.21156L5.23905 4.68093C5.44032 4.65168 5.61432 4.52526 5.70433 4.34288L7.33744 1.03383C7.79057 0.115689 8.9022 -0.261276 9.82034 0.191852C10.1859 0.37229 10.4819 0.668219 10.6623 1.03383L12.2954 4.34288C12.3854 4.52526 12.5594 4.65168 12.7607 4.68093L16.4125 5.21156C17.4257 5.35879 18.1277 6.29952 17.9805 7.31275C17.9219 7.71622 17.7319 8.08911 17.4399 8.3737L14.7975 10.9494C14.6518 11.0914 14.5854 11.2959 14.6198 11.4964L15.2435 15.1334C15.4166 16.1425 14.7389 17.1009 13.7297 17.274C13.3279 17.3429 12.9145 17.2774 12.5537 17.0877L9.28744 15.3706C9.14342 15.2948 8.97697 15.2797 8.82398 15.3251L8.71232 15.3706Z" stroke="#262626" stroke-width="1.6" stroke-linecap="round" stroke-linejoin="round"/>
</svg>
