<svg width="18" height="18" viewBox="0 0 18 18" fill="none" xmlns="http://www.w3.org/2000/svg">
<g clip-path="url(#clip0_59_194195)">
<path d="M17.7692 9.05516C17.7692 8.32682 17.7088 7.79532 17.5779 7.24414H9.06592V10.5315H14.0622C13.9615 11.3485 13.4176 12.5788 12.2088 13.4056L12.1918 13.5156L14.8831 15.5528L15.0696 15.571C16.782 14.0257 17.7692 11.752 17.7692 9.05516Z" fill="#4285F4"/>
<path d="M9.06592 17.7168C11.5137 17.7168 13.5686 16.9293 15.0696 15.5711L12.2087 13.4057C11.4432 13.9273 10.4157 14.2915 9.06592 14.2915C6.66849 14.2915 4.63371 12.7463 3.90836 10.6104L3.80204 10.6192L1.00358 12.7354L0.96698 12.8348C2.45781 15.7285 5.52009 17.7168 9.06592 17.7168Z" fill="#34A853"/>
<path d="M3.9084 10.6104C3.71701 10.0592 3.60625 9.46862 3.60625 8.85841C3.60625 8.24813 3.71701 7.6576 3.89834 7.10641L3.89327 6.98903L1.05972 4.83887L0.967014 4.88195C0.35257 6.08277 0 7.43123 0 8.85841C0 10.2856 0.35257 11.634 0.967014 12.8348L3.9084 10.6104Z" fill="#FBBC05"/>
<path d="M9.06597 3.42521C10.7683 3.42521 11.9167 4.14371 12.5715 4.74415L15.13 2.30316C13.5587 0.875996 11.5138 0 9.06597 0C5.52012 0 2.45782 1.98819 0.96698 4.8819L3.89831 7.10636C4.63373 4.97052 6.66852 3.42521 9.06597 3.42521Z" fill="#EB4335"/>
</g>
<defs>
<clipPath id="clip0_59_194195">
<rect width="17.7693" height="17.7168" fill="white"/>
</clipPath>
</defs>
</svg>
