<svg width="24" height="24" viewBox="0 0 24 24" fill="none" xmlns="http://www.w3.org/2000/svg">
<g filter="url(#filter0_d_60_7673)">
<path fill-rule="evenodd" clip-rule="evenodd" d="M6.41669 0L19.8334 0C22.0425 0 23.8334 1.79086 23.8334 4V19.8333C23.8334 22.0425 22.0425 23.8333 19.8334 23.8333H6.41669V0Z" fill="url(#paint0_linear_60_7673)"/>
<path d="M9.625 16.0073C9.72714 12.1933 12.1046 9.27347 13.2189 9.65927C14.3332 10.0451 12.555 14.1874 13.394 14.6525C14.2329 15.1177 15.0505 13.2247 15.9561 12.7381C16.8618 12.2515 17.4722 12.626 18.524 12.626C19.363 12.626 19.9918 12.3854 20.913 12.0162" stroke="#00C385" stroke-width="2" stroke-linecap="round" stroke-linejoin="round"/>
<path opacity="0.65" d="M0 5.50049C0 4.48807 0.820635 3.66668 1.83301 3.6665H1.84766C2.01721 1.61361 3.7364 0.00065491 5.83301 0.000488281H6.41699L6.41699 23.8335H5.83301C3.73617 23.8333 2.0169 22.2197 1.84766 20.1665H1.83301C0.820635 20.1663 0 19.3459 0 18.3335C3.22093e-07 17.3211 0.820636 16.5007 1.83301 16.5005L1.83301 13.7505C0.820635 13.7503 0 12.9289 0 11.9165C0.000176033 10.9042 0.820744 10.0837 1.83301 10.0835L1.83301 7.3335C0.820744 7.33332 0.000175905 6.51275 0 5.50049Z" fill="white"/>
</g>
<defs>
<filter id="filter0_d_60_7673" x="-10" y="-9" width="43.8334" height="43.8335" filterUnits="userSpaceOnUse" color-interpolation-filters="sRGB">
<feFlood flood-opacity="0" result="BackgroundImageFix"/>
<feColorMatrix in="SourceAlpha" type="matrix" values="0 0 0 0 0 0 0 0 0 0 0 0 0 0 0 0 0 0 127 0" result="hardAlpha"/>
<feOffset dy="1"/>
<feGaussianBlur stdDeviation="5"/>
<feColorMatrix type="matrix" values="0 0 0 0 0 0 0 0 0 0 0 0 0 0 0 0 0 0 0.06 0"/>
<feBlend mode="normal" in2="BackgroundImageFix" result="effect1_dropShadow_60_7673"/>
<feBlend mode="normal" in="SourceGraphic" in2="effect1_dropShadow_60_7673" result="shape"/>
</filter>
<linearGradient id="paint0_linear_60_7673" x1="22.5914" y1="24.5522" x2="22.5914" y2="2.11816" gradientUnits="userSpaceOnUse">
<stop stop-color="white" stop-opacity="0.8"/>
<stop offset="1" stop-color="white"/>
</linearGradient>
</defs>
</svg>
