<svg width="375" height="232" viewBox="0 0 375 232" fill="none" xmlns="http://www.w3.org/2000/svg">
<path fill-rule="evenodd" clip-rule="evenodd" d="M0 0H375V232H187.5H0L0 0Z" fill="white"/>
<path fill-rule="evenodd" clip-rule="evenodd" d="M0 0H375V232H187.5H0L0 0Z" fill="url(#paint0_linear_59_193382)"/>
<path fill-rule="evenodd" clip-rule="evenodd" d="M0 0H375V232H187.5H0L0 0Z" fill="url(#paint1_linear_59_193382)"/>
<mask id="mask0_59_193382" style="mask-type:luminance" maskUnits="userSpaceOnUse" x="0" y="0" width="375" height="232">
<path fill-rule="evenodd" clip-rule="evenodd" d="M0 0H375V232H187.5H0L0 0Z" fill="white"/>
<path fill-rule="evenodd" clip-rule="evenodd" d="M0 0H375V232H187.5H0L0 0Z" stroke="white"/>
</mask>
<g mask="url(#mask0_59_193382)">
<g filter="url(#filter0_f_59_193382)">
<path fill-rule="evenodd" clip-rule="evenodd" d="M-39 -10H39L202 224H180L-39 -10Z" fill="url(#paint2_linear_59_193382)"/>
<path d="M39.2607 -10.5L39.4102 -10.2861L202.41 223.714L202.958 224.5H179.783L179.635 224.342L-39.3652 -9.6582L-40.1523 -10.5H39.2607Z" stroke="#46B9FF"/>
</g>
<g opacity="0.8" filter="url(#filter1_f_59_193382)">
<path fill-rule="evenodd" clip-rule="evenodd" d="M-38 -10H40L100 224L-38 -10Z" fill="url(#paint3_linear_59_193382)"/>
</g>
<g opacity="0.8" filter="url(#filter2_f_59_193382)">
<path fill-rule="evenodd" clip-rule="evenodd" d="M316 -10H384L527 224H505L316 -10Z" fill="url(#paint4_linear_59_193382)"/>
</g>
<g opacity="0.8" filter="url(#filter3_f_59_193382)">
<path fill-rule="evenodd" clip-rule="evenodd" d="M61 -10H95L190 224L61 -10Z" fill="url(#paint5_linear_59_193382)"/>
<path d="M95.3369 -10.5L95.4629 -10.1885L190.463 223.812L189.562 224.241L60.5625 -9.75879L60.1533 -10.5H95.3369Z" stroke="#46B9FF"/>
</g>
</g>
<defs>
<filter id="filter0_f_59_193382" x="-76.6432" y="-46.3377" width="315.896" height="306.675" filterUnits="userSpaceOnUse" color-interpolation-filters="sRGB">
<feFlood flood-opacity="0" result="BackgroundImageFix"/>
<feBlend mode="normal" in="SourceGraphic" in2="BackgroundImageFix" result="shape"/>
<feGaussianBlur stdDeviation="17.6688" result="effect1_foregroundBlur_59_193382"/>
</filter>
<filter id="filter1_f_59_193382" x="-73.3377" y="-45.3377" width="208.675" height="304.675" filterUnits="userSpaceOnUse" color-interpolation-filters="sRGB">
<feFlood flood-opacity="0" result="BackgroundImageFix"/>
<feBlend mode="normal" in="SourceGraphic" in2="BackgroundImageFix" result="shape"/>
<feGaussianBlur stdDeviation="17.6688" result="effect1_foregroundBlur_59_193382"/>
</filter>
<filter id="filter2_f_59_193382" x="280.662" y="-45.3377" width="281.675" height="304.675" filterUnits="userSpaceOnUse" color-interpolation-filters="sRGB">
<feFlood flood-opacity="0" result="BackgroundImageFix"/>
<feBlend mode="normal" in="SourceGraphic" in2="BackgroundImageFix" result="shape"/>
<feGaussianBlur stdDeviation="17.6688" result="effect1_foregroundBlur_59_193382"/>
</filter>
<filter id="filter3_f_59_193382" x="23.9692" y="-46.3377" width="202.295" height="306.158" filterUnits="userSpaceOnUse" color-interpolation-filters="sRGB">
<feFlood flood-opacity="0" result="BackgroundImageFix"/>
<feBlend mode="normal" in="SourceGraphic" in2="BackgroundImageFix" result="shape"/>
<feGaussianBlur stdDeviation="17.6688" result="effect1_foregroundBlur_59_193382"/>
</filter>
<linearGradient id="paint0_linear_59_193382" x1="68.9542" y1="85.3193" x2="68.9542" y2="232" gradientUnits="userSpaceOnUse">
<stop stop-color="#D4E6FD"/>
<stop offset="1" stop-color="#D4E6FD" stop-opacity="0.01"/>
</linearGradient>
<linearGradient id="paint1_linear_59_193382" x1="156.204" y1="193.276" x2="156.204" y2="232" gradientUnits="userSpaceOnUse">
<stop stop-color="#F6F6F6" stop-opacity="0.01"/>
<stop offset="1" stop-color="#F6F6F6"/>
</linearGradient>
<linearGradient id="paint2_linear_59_193382" x1="-59.5651" y1="37.7879" x2="35.1775" y2="168.396" gradientUnits="userSpaceOnUse">
<stop stop-color="white"/>
<stop offset="1" stop-color="white" stop-opacity="0.01"/>
</linearGradient>
<linearGradient id="paint3_linear_59_193382" x1="-49.7759" y1="37.7879" x2="47.1671" y2="114.313" gradientUnits="userSpaceOnUse">
<stop stop-color="#FFF0F0" stop-opacity="0.342876"/>
<stop offset="1" stop-color="#FFF0F0" stop-opacity="0.01"/>
</linearGradient>
<linearGradient id="paint4_linear_59_193382" x1="297.995" y1="37.7879" x2="395.924" y2="155.984" gradientUnits="userSpaceOnUse">
<stop stop-color="white" stop-opacity="0.751338"/>
<stop offset="1" stop-color="white" stop-opacity="0.01"/>
</linearGradient>
<linearGradient id="paint5_linear_59_193382" x1="49.9921" y1="37.7879" x2="145.226" y2="108.061" gradientUnits="userSpaceOnUse">
<stop stop-color="white"/>
<stop offset="1" stop-color="white" stop-opacity="0.01"/>
</linearGradient>
</defs>
</svg>
