<svg width="14" height="14" viewBox="0 0 14 14" fill="none" xmlns="http://www.w3.org/2000/svg">
<path fill-rule="evenodd" clip-rule="evenodd" d="M5.99824 2.15728L4.93923 4.31888C4.88838 4.42268 4.78955 4.49468 4.67515 4.51127L2.24055 4.8643C1.62839 4.95307 1.2041 5.52128 1.29287 6.13344C1.32815 6.37675 1.44251 6.6017 1.61832 6.77357L3.38661 8.50233C3.46922 8.5831 3.50666 8.69942 3.48665 8.81321L3.07502 11.1542C2.9679 11.7634 3.37493 12.3441 3.98414 12.4512C4.2305 12.4946 4.48426 12.4542 4.70499 12.3365L6.83288 11.2021C6.93578 11.1472 7.05925 11.1472 7.16216 11.2021L9.29431 12.3385C9.84017 12.6294 10.5185 12.4228 10.8095 11.8769C10.9269 11.6567 10.9673 11.4035 10.9244 11.1576L10.5152 8.81278C10.4954 8.69923 10.5327 8.5832 10.6151 8.50255L12.3824 6.77167C12.8244 6.33887 12.8318 5.62977 12.399 5.18784C12.2274 5.01264 12.0031 4.8986 11.7604 4.86321L9.34644 4.51122C9.23278 4.49465 9.13449 4.42337 9.08343 4.32048L8.00726 2.15212C7.73227 1.59805 7.06018 1.37181 6.50611 1.6468C6.28524 1.75641 6.10672 1.93585 5.99824 2.15728Z" fill="#FE5815"/>
</svg>
