<svg width="351" height="364" viewBox="0 0 351 364" fill="none" xmlns="http://www.w3.org/2000/svg">
<foreignObject x="-13.5914" y="-13.5914" width="378.183" height="391.183"><div xmlns="http://www.w3.org/1999/xhtml" style="backdrop-filter:blur(6.8px);clip-path:url(#bgblur_0_129_16468_clip_path);height:100%;width:100%"></div></foreignObject><path data-figma-bg-blur-radius="13.5914" fill-rule="evenodd" clip-rule="evenodd" d="M0 19.2C0 12.4794 0 9.11905 1.30792 6.55211C2.4584 4.29417 4.29417 2.4584 6.55211 1.30792C9.11905 0 12.4794 0 19.2 0L331.8 0C338.521 0 341.881 0 344.448 1.30792C346.706 2.4584 348.542 4.29417 349.692 6.55211C351 9.11905 351 12.4794 351 19.2V344.8C351 351.521 351 354.881 349.692 357.448C348.542 359.706 346.706 361.542 344.448 362.692C341.881 364 338.521 364 331.8 364H19.2C12.4794 364 9.11905 364 6.55211 362.692C4.29417 361.542 2.4584 359.706 1.30792 357.448C0 354.881 0 351.521 0 344.8L0 19.2Z" fill="white"/>
<defs>
<clipPath id="bgblur_0_129_16468_clip_path" transform="translate(13.5914 13.5914)"><path fill-rule="evenodd" clip-rule="evenodd" d="M0 19.2C0 12.4794 0 9.11905 1.30792 6.55211C2.4584 4.29417 4.29417 2.4584 6.55211 1.30792C9.11905 0 12.4794 0 19.2 0L331.8 0C338.521 0 341.881 0 344.448 1.30792C346.706 2.4584 348.542 4.29417 349.692 6.55211C351 9.11905 351 12.4794 351 19.2V344.8C351 351.521 351 354.881 349.692 357.448C348.542 359.706 346.706 361.542 344.448 362.692C341.881 364 338.521 364 331.8 364H19.2C12.4794 364 9.11905 364 6.55211 362.692C4.29417 361.542 2.4584 359.706 1.30792 357.448C0 354.881 0 351.521 0 344.8L0 19.2Z"/>
</clipPath></defs>
</svg>
