<svg width="21" height="20" viewBox="0 0 21 20" fill="none" xmlns="http://www.w3.org/2000/svg">
<path d="M4.5835 4.4V2.75C4.5835 1.23122 5.85717 0 7.42832 0H12.7387C14.3098 0 15.5835 1.23122 15.5835 2.75V4.4" stroke="#096DD9" stroke-width="2" stroke-linecap="round" stroke-linejoin="round"/>
<path fill-rule="evenodd" clip-rule="evenodd" d="M0 7.40039C0 5.74353 1.34315 4.40039 3 4.40039H17.1667C18.8235 4.40039 20.1667 5.74354 20.1667 7.40039V16.9837C20.1667 18.6406 18.8235 19.9837 17.1667 19.9837H3C1.34314 19.9837 0 18.6406 0 16.9837V7.40039Z" stroke="#333333" stroke-width="2" stroke-linejoin="round"/>
<path d="M20.1667 9.1499C17.3211 10.0553 13.8412 10.5878 10.0833 10.5878C6.32547 10.5878 2.84557 10.0553 0 9.1499" stroke="#333333" stroke-width="2" stroke-linejoin="round"/>
</svg>
